<svg width="106" height="83" viewBox="0 0 106 83" fill="none" xmlns="http://www.w3.org/2000/svg">
<g id="Group 1739332406">
<g id="&#231;&#188;&#150;&#231;&#187;&#132; 25&#229;&#164;&#135;&#228;&#187;&#189;">
<g id="&#231;&#188;&#150;&#231;&#187;&#132; 5&#229;&#164;&#135;&#228;&#187;&#189; 12">
<g id="&#231;&#159;&#169;&#229;&#189;&#162;&#229;&#164;&#135;&#228;&#187;&#189; 76" filter="url(#filter0_d_250_1394)">
<path fill-rule="evenodd" clip-rule="evenodd" d="M52.7871 31.2789L105.574 46.7321V55.2679L52.7871 82L0 55.2679L0.44057 46.7321L52.7871 31.2789Z" fill="url(#paint0_linear_250_1394)"/>
</g>
<g id="&#231;&#159;&#169;&#229;&#189;&#162;&#229;&#164;&#135;&#228;&#187;&#189; 77" filter="url(#filter1_i_250_1394)">
<path fill-rule="evenodd" clip-rule="evenodd" d="M52.7871 20L105.574 46.7321L52.7871 73.4641L0 46.7321L52.7871 20Z" fill="url(#paint1_linear_250_1394)"/>
</g>
<mask id="mask0_250_1394" style="mask-type:luminance" maskUnits="userSpaceOnUse" x="0" y="20" width="106" height="54">
<path id="&#231;&#159;&#169;&#229;&#189;&#162;&#229;&#164;&#135;&#228;&#187;&#189; 77_2" fill-rule="evenodd" clip-rule="evenodd" d="M52.7871 20L105.574 46.7321L52.7871 73.4641L0 46.7321L52.7871 20Z" fill="white"/>
</mask>
<g mask="url(#mask0_250_1394)">
<g id="&#230;&#164;&#173;&#229;&#156;&#134;&#229;&#189;&#162;" filter="url(#filter2_f_250_1394)">
<ellipse cx="53.6959" cy="56.3368" rx="27.3757" ry="10.6979" transform="rotate(-3 53.6959 56.3368)" fill="#B1D3FF" fill-opacity="0.539915"/>
</g>
</g>
</g>
</g>
<g id="Group 1739332402">
<g id="&#231;&#188;&#150;&#231;&#187;&#132; 28&#229;&#164;&#135;&#228;&#187;&#189;">
<g id="&#232;&#183;&#175;&#229;&#190;&#132;" filter="url(#filter3_d_250_1394)">
<path fill-rule="evenodd" clip-rule="evenodd" d="M78.397 43.686C78.397 52.2246 66.0281 60.0001 50.7605 60.0001C35.4929 60.0001 23.1143 52.2246 23.1143 43.686L25.6703 41.3827C25.6703 41.3827 42.0962 37.6309 50.7605 37.6309C61.7277 37.6309 74.9355 42.6519 74.9355 42.6519L78.397 43.686Z" fill="url(#paint2_linear_250_1394)"/>
</g>
<g id="&#230;&#164;&#173;&#229;&#156;&#134;&#229;&#189;&#162;_2">
<ellipse cx="50.7556" cy="42.6519" rx="27.6414" ry="15.465" fill="url(#paint3_linear_250_1394)"/>
<ellipse cx="50.7556" cy="42.6519" rx="27.6414" ry="15.465" fill="url(#paint4_radial_250_1394)"/>
</g>
<g id="&#230;&#164;&#173;&#229;&#156;&#134;&#229;&#189;&#162;_3" filter="url(#filter4_f_250_1394)">
<ellipse cx="50.9618" cy="36.2639" rx="19.2878" ry="7.77335" transform="rotate(9 50.9618 36.2639)" fill="#3E7CFE" fill-opacity="0.758876"/>
</g>
</g>
<g id="&#231;&#188;&#150;&#231;&#187;&#132; 31">
<path id="&#232;&#183;&#175;&#229;&#190;&#132;_2" fill-rule="evenodd" clip-rule="evenodd" d="M20.9073 28.0493C23.6286 25.1737 28.1067 22.8993 33.5329 21.6677C33.8571 21.5976 34.0891 21.3094 34.0904 20.9753V5.94318C34.0897 5.72543 33.9907 5.51985 33.8213 5.38466C33.652 5.24947 33.4307 5.1994 33.2203 5.24863C27.4484 6.6087 22.7894 9.15469 20.2202 12.3434C20.076 12.5243 19.9982 12.7499 20.0001 12.982V27.6803C19.9992 27.8975 20.1298 28.0933 20.3296 28.1746C20.5295 28.2559 20.7583 28.2063 20.9073 28.0493Z" fill="url(#paint5_linear_250_1394)"/>
<path id="&#232;&#183;&#175;&#229;&#190;&#132;_3" fill-rule="evenodd" clip-rule="evenodd" d="M69.832 23.6693C78.1093 25.3674 84.0148 29.8125 84.0148 35.0309V16.6132C84.0148 11.3947 78.1093 6.94961 69.832 5.25159V23.6693Z" fill="url(#paint6_linear_250_1394)"/>
<path id="&#232;&#183;&#175;&#229;&#190;&#132;_4" d="M83.8861 34.8651C83.8861 37.1001 82.8 39.1941 80.9097 40.9916V22.6153C82.8 20.8199 83.8861 18.7258 83.8861 16.4908V34.8651Z" fill="url(#paint7_linear_250_1394)"/>
</g>
<g id="&#231;&#188;&#150;&#231;&#187;&#132; 32&#229;&#164;&#135;&#228;&#187;&#189; 2">
<g id="&#231;&#159;&#169;&#229;&#189;&#162;&#229;&#164;&#135;&#228;&#187;&#189; 62">
<path fill-rule="evenodd" clip-rule="evenodd" d="M60.3873 0.653949C60.8601 0.236905 61.4851 0.0353345 62.1125 0.0975366L73.3783 1.21443C74.5394 1.32955 75.4241 2.30628 75.4241 3.47311V14.8735C75.4241 15.6052 75.0342 16.2815 74.401 16.6481L62.7489 14.5594C61.7201 14.375 60.9503 13.5119 60.8842 12.4688L60.1489 0.864162L60.3873 0.653949Z" fill="url(#paint8_linear_250_1394)"/>
<path fill-rule="evenodd" clip-rule="evenodd" d="M60.3873 0.653949C60.8601 0.236905 61.4851 0.0353345 62.1125 0.0975366L73.3783 1.21443C74.5394 1.32955 75.4241 2.30628 75.4241 3.47311V14.8735C75.4241 15.6052 75.0342 16.2815 74.401 16.6481L62.7489 14.5594C61.7201 14.375 60.9503 13.5119 60.8842 12.4688L60.1489 0.864162L60.3873 0.653949Z" fill="url(#paint9_radial_250_1394)"/>
</g>
<path id="&#231;&#159;&#169;&#229;&#189;&#162;" fill-rule="evenodd" clip-rule="evenodd" d="M59.9966 3.08848C59.9966 1.74097 61.1637 0.690189 62.5038 0.831196L72.6774 1.90165C73.8326 2.0232 74.7096 2.99734 74.7096 4.15894V14.2801C74.7096 15.6276 73.5425 16.6784 72.2024 16.5374L62.0288 15.467C60.8736 15.3454 59.9966 14.3713 59.9966 13.2097V3.08848Z" fill="url(#paint10_linear_250_1394)"/>
</g>
<g id="&#231;&#188;&#150;&#231;&#187;&#132; 32">
<path id="&#231;&#159;&#169;&#229;&#189;&#162;&#229;&#164;&#135;&#228;&#187;&#189; 62_2" fill-rule="evenodd" clip-rule="evenodd" d="M39.4212 6.26644C40.3611 5.44782 41.5963 5.0517 42.837 5.171L65.3194 7.33274C67.6475 7.55659 69.4245 9.5126 69.4245 11.8514V34.6418C69.4245 36.1748 68.6507 37.6043 67.3672 38.4425L66.8069 38.8084L43.5027 34.6309C41.4451 34.2621 39.9054 32.5359 39.7732 30.4497L38.3027 7.2405L39.4212 6.26644Z" fill="url(#paint11_linear_250_1394)"/>
<path id="&#231;&#159;&#169;&#229;&#189;&#162;_2" fill-rule="evenodd" clip-rule="evenodd" d="M37.9985 11.689C37.9985 8.99402 40.3328 6.89246 43.0131 7.17448L63.3602 9.31539C65.6706 9.55849 67.4246 11.5068 67.4246 13.83V34.0724C67.4246 36.7674 65.0903 38.8689 62.4101 38.5869L42.063 36.446C39.7526 36.2029 37.9985 34.2546 37.9985 31.9314V11.689Z" fill="url(#paint12_linear_250_1394)"/>
</g>
<g id="&#231;&#188;&#150;&#231;&#187;&#132; 32&#229;&#164;&#135;&#228;&#187;&#189;">
<path id="&#231;&#159;&#169;&#229;&#189;&#162;&#229;&#164;&#135;&#228;&#187;&#189; 62_3" fill-rule="evenodd" clip-rule="evenodd" d="M33.136 10.8737C34.0759 10.0551 35.3111 9.659 36.5518 9.7783L59.0343 11.94C61.3623 12.1639 63.1393 14.1199 63.1393 16.4587V39.2491C63.1393 40.7821 62.3655 42.2116 61.082 43.0498L60.5217 43.4157L61.049 18.6053C61.0999 16.2123 59.284 14.191 56.8992 13.986L32.0176 11.8478L33.136 10.8737Z" fill="url(#paint13_linear_250_1394)"/>
<g id="&#231;&#159;&#169;&#229;&#189;&#162;_3" filter="url(#filter5_b_250_1394)">
<path fill-rule="evenodd" clip-rule="evenodd" d="M31.999 16.3015C31.999 13.6046 34.3364 11.5025 37.0181 11.7874L57.0796 13.919C59.388 14.1643 61.1394 16.1116 61.1394 18.4331V38.6745C61.1394 41.3714 58.8021 43.4735 56.1203 43.1886L36.0589 41.057C33.7505 40.8117 31.999 38.8644 31.999 36.5429V16.3015Z" fill="url(#paint14_linear_250_1394)"/>
</g>
</g>
<g id="&#231;&#188;&#150;&#231;&#187;&#132; 32&#229;&#164;&#135;&#228;&#187;&#189; 2_2">
<g id="&#231;&#159;&#169;&#229;&#189;&#162;&#229;&#164;&#135;&#228;&#187;&#189; 62_4">
<path fill-rule="evenodd" clip-rule="evenodd" d="M37.5318 32.0412C38.0047 31.6241 38.6297 31.4225 39.2571 31.4847L50.5228 32.6016C51.6839 32.7168 52.5686 33.6935 52.5686 34.8603V46.2607C52.5686 46.9924 52.1787 47.6687 51.5455 48.0353L39.8934 45.9466C38.8647 45.7622 38.0948 44.8991 38.0287 43.856L37.2935 32.2514L37.5318 32.0412Z" fill="url(#paint15_linear_250_1394)"/>
<path fill-rule="evenodd" clip-rule="evenodd" d="M37.5318 32.0412C38.0047 31.6241 38.6297 31.4225 39.2571 31.4847L50.5228 32.6016C51.6839 32.7168 52.5686 33.6935 52.5686 34.8603V46.2607C52.5686 46.9924 52.1787 47.6687 51.5455 48.0353L39.8934 45.9466C38.8647 45.7622 38.0948 44.8991 38.0287 43.856L37.2935 32.2514L37.5318 32.0412Z" fill="url(#paint16_radial_250_1394)"/>
</g>
<path id="&#231;&#159;&#169;&#229;&#189;&#162;_4" fill-rule="evenodd" clip-rule="evenodd" d="M37.1416 34.4757C37.1416 33.1282 38.3087 32.0774 39.6489 32.2184L49.8224 33.2889C50.9776 33.4104 51.8546 34.3845 51.8546 35.5461V45.6673C51.8546 47.0149 50.6875 48.0656 49.3474 47.9246L39.1738 46.8542C38.0186 46.7326 37.1416 45.7585 37.1416 44.5969V34.4757Z" fill="url(#paint17_linear_250_1394)"/>
</g>
<ellipse id="&#230;&#164;&#173;&#229;&#156;&#134;&#229;&#189;&#162;_4" cx="52.3528" cy="35.3579" rx="27.6414" ry="15.465" stroke="url(#paint18_linear_250_1394)" stroke-width="2.25174"/>
<g id="&#231;&#159;&#169;&#229;&#189;&#162;_5" filter="url(#filter6_d_250_1394)">
<path fill-rule="evenodd" clip-rule="evenodd" d="M47.7119 18.996C47.7119 18.0802 48.5051 17.3661 49.4159 17.4619L58.044 18.3697C58.8292 18.4523 59.4252 19.1144 59.4252 19.9039C59.4252 20.8197 58.632 21.5338 57.7212 21.438L49.0931 20.5301C48.308 20.4475 47.7119 19.7855 47.7119 18.996Z" fill="url(#paint19_linear_250_1394)"/>
</g>
<g id="&#231;&#159;&#169;&#229;&#189;&#162;&#229;&#164;&#135;&#228;&#187;&#189; 63" filter="url(#filter7_d_250_1394)">
<path fill-rule="evenodd" clip-rule="evenodd" d="M47.7119 24.7712C47.7119 23.8501 48.5149 23.1347 49.4299 23.2406L53.6815 23.7328C54.4587 23.8228 55.0451 24.481 55.0451 25.2634C55.0451 26.1846 54.2421 26.9 53.3271 26.794L49.0755 26.3018C48.2983 26.2118 47.7119 25.5536 47.7119 24.7712Z" fill="url(#paint20_linear_250_1394)"/>
</g>
<ellipse id="&#230;&#164;&#173;&#229;&#156;&#134;&#229;&#189;&#162;_5" cx="61.5679" cy="50.2722" rx="1.5713" ry="1.58376" fill="url(#paint21_linear_250_1394)"/>
<ellipse id="&#230;&#164;&#173;&#229;&#156;&#134;&#229;&#189;&#162;&#229;&#164;&#135;&#228;&#187;&#189; 7" cx="70.4247" cy="43.9372" rx="0.999916" ry="1.00785" fill="url(#paint22_linear_250_1394)"/>
<ellipse id="&#230;&#164;&#173;&#229;&#156;&#134;&#229;&#189;&#162;&#229;&#164;&#135;&#228;&#187;&#189; 12" cx="40.4272" cy="49.4084" rx="0.999916" ry="1.00785" fill="url(#paint23_linear_250_1394)"/>
<ellipse id="&#230;&#164;&#173;&#229;&#156;&#134;&#229;&#189;&#162;&#229;&#164;&#135;&#228;&#187;&#189; 13" cx="28.7137" cy="44.8011" rx="0.714226" ry="0.71989" fill="url(#paint24_linear_250_1394)"/>
<ellipse id="&#230;&#164;&#173;&#229;&#156;&#134;&#229;&#189;&#162;&#229;&#164;&#135;&#228;&#187;&#189; 14" cx="27.8568" cy="39.6178" rx="0.714226" ry="0.71989" fill="url(#paint25_linear_250_1394)"/>
<ellipse id="&#230;&#164;&#173;&#229;&#156;&#134;&#229;&#189;&#162;&#229;&#164;&#135;&#228;&#187;&#189; 15" cx="24.7142" cy="36.4504" rx="0.428535" ry="0.431934" fill="url(#paint26_linear_250_1394)"/>
<ellipse id="&#230;&#164;&#173;&#229;&#156;&#134;&#229;&#189;&#162;&#229;&#164;&#135;&#228;&#187;&#189; 8" cx="78.7093" cy="41.9216" rx="0.428535" ry="0.431934" fill="url(#paint27_linear_250_1394)"/>
<ellipse id="&#230;&#164;&#173;&#229;&#156;&#134;&#229;&#189;&#162;&#229;&#164;&#135;&#228;&#187;&#189; 9" cx="78.7093" cy="37.8901" rx="0.428535" ry="0.431934" fill="url(#paint28_linear_250_1394)"/>
<ellipse id="&#230;&#164;&#173;&#229;&#156;&#134;&#229;&#189;&#162;&#229;&#164;&#135;&#228;&#187;&#189; 10" cx="80.4237" cy="35.8744" rx="0.428535" ry="0.431934" fill="url(#paint29_linear_250_1394)"/>
<path id="&#232;&#183;&#175;&#229;&#190;&#132;_5" fill-rule="evenodd" clip-rule="evenodd" d="M42.6704 37.2423C42.6933 36.9235 42.9258 36.8212 43.1882 37.0124L47.4474 40.1161C47.7104 40.3079 47.6915 40.5618 47.4068 40.6823L42.7854 42.6396C42.5 42.7606 42.287 42.6003 42.3098 42.2815L42.6704 37.2423Z" fill="url(#paint30_linear_250_1394)"/>
</g>
</g>
<defs>
<filter id="filter0_d_250_1394" x="0" y="31.2789" width="105.574" height="51.7211" filterUnits="userSpaceOnUse" color-interpolation-filters="sRGB">
<feFlood flood-opacity="0" result="BackgroundImageFix"/>
<feColorMatrix in="SourceAlpha" type="matrix" values="0 0 0 0 0 0 0 0 0 0 0 0 0 0 0 0 0 0 127 0" result="hardAlpha"/>
<feOffset dy="1"/>
<feColorMatrix type="matrix" values="0 0 0 0 0.469187 0 0 0 0 0.503882 0 0 0 0 0.580577 0 0 0 0.251899 0"/>
<feBlend mode="normal" in2="BackgroundImageFix" result="effect1_dropShadow_250_1394"/>
<feBlend mode="normal" in="SourceGraphic" in2="effect1_dropShadow_250_1394" result="shape"/>
</filter>
<filter id="filter1_i_250_1394" x="0" y="20" width="105.574" height="53.4641" filterUnits="userSpaceOnUse" color-interpolation-filters="sRGB">
<feFlood flood-opacity="0" result="BackgroundImageFix"/>
<feBlend mode="normal" in="SourceGraphic" in2="BackgroundImageFix" result="shape"/>
<feColorMatrix in="SourceAlpha" type="matrix" values="0 0 0 0 0 0 0 0 0 0 0 0 0 0 0 0 0 0 127 0" result="hardAlpha"/>
<feOffset dy="-1"/>
<feComposite in2="hardAlpha" operator="arithmetic" k2="-1" k3="1"/>
<feColorMatrix type="matrix" values="0 0 0 0 1 0 0 0 0 1 0 0 0 0 1 0 0 0 0.625209 0"/>
<feBlend mode="normal" in2="shape" result="effect1_innerShadow_250_1394"/>
</filter>
<filter id="filter2_f_250_1394" x="-22.1201" y="-2.91555" width="151.632" height="118.505" filterUnits="userSpaceOnUse" color-interpolation-filters="sRGB">
<feFlood flood-opacity="0" result="BackgroundImageFix"/>
<feBlend mode="normal" in="SourceGraphic" in2="BackgroundImageFix" result="shape"/>
<feGaussianBlur stdDeviation="24.2361" result="effect1_foregroundBlur_250_1394"/>
</filter>
<filter id="filter3_d_250_1394" x="23.1143" y="37.6309" width="55.2827" height="22.3693" filterUnits="userSpaceOnUse" color-interpolation-filters="sRGB">
<feFlood flood-opacity="0" result="BackgroundImageFix"/>
<feColorMatrix in="SourceAlpha" type="matrix" values="0 0 0 0 0 0 0 0 0 0 0 0 0 0 0 0 0 0 127 0" result="hardAlpha"/>
<feOffset/>
<feColorMatrix type="matrix" values="0 0 0 0 0.469187 0 0 0 0 0.503882 0 0 0 0 0.580577 0 0 0 0.251899 0"/>
<feBlend mode="normal" in2="BackgroundImageFix" result="effect1_dropShadow_250_1394"/>
<feBlend mode="normal" in="SourceGraphic" in2="effect1_dropShadow_250_1394" result="shape"/>
</filter>
<filter id="filter4_f_250_1394" x="7.1928" y="3.33318" width="87.5382" height="65.8615" filterUnits="userSpaceOnUse" color-interpolation-filters="sRGB">
<feFlood flood-opacity="0" result="BackgroundImageFix"/>
<feBlend mode="normal" in="SourceGraphic" in2="BackgroundImageFix" result="shape"/>
<feGaussianBlur stdDeviation="12.3396" result="effect1_foregroundBlur_250_1394"/>
</filter>
<filter id="filter5_b_250_1394" x="19.6594" y="-0.57816" width="53.8199" height="56.1323" filterUnits="userSpaceOnUse" color-interpolation-filters="sRGB">
<feFlood flood-opacity="0" result="BackgroundImageFix"/>
<feGaussianBlur in="BackgroundImageFix" stdDeviation="6.16982"/>
<feComposite in2="SourceAlpha" operator="in" result="effect1_backgroundBlur_250_1394"/>
<feBlend mode="normal" in="SourceGraphic" in2="effect1_backgroundBlur_250_1394" result="shape"/>
</filter>
<filter id="filter6_d_250_1394" x="37.7119" y="17.4532" width="21.7134" height="13.9934" filterUnits="userSpaceOnUse" color-interpolation-filters="sRGB">
<feFlood flood-opacity="0" result="BackgroundImageFix"/>
<feColorMatrix in="SourceAlpha" type="matrix" values="0 0 0 0 0 0 0 0 0 0 0 0 0 0 0 0 0 0 127 0" result="hardAlpha"/>
<feOffset dx="-5" dy="5"/>
<feGaussianBlur stdDeviation="2.5"/>
<feColorMatrix type="matrix" values="0 0 0 0 0.186575 0 0 0 0 0.326246 0 0 0 0 1 0 0 0 0.5 0"/>
<feBlend mode="normal" in2="BackgroundImageFix" result="effect1_dropShadow_250_1394"/>
<feBlend mode="normal" in="SourceGraphic" in2="effect1_dropShadow_250_1394" result="shape"/>
</filter>
<filter id="filter7_d_250_1394" x="37.7119" y="23.2302" width="17.333" height="13.5742" filterUnits="userSpaceOnUse" color-interpolation-filters="sRGB">
<feFlood flood-opacity="0" result="BackgroundImageFix"/>
<feColorMatrix in="SourceAlpha" type="matrix" values="0 0 0 0 0 0 0 0 0 0 0 0 0 0 0 0 0 0 127 0" result="hardAlpha"/>
<feOffset dx="-5" dy="5"/>
<feGaussianBlur stdDeviation="2.5"/>
<feColorMatrix type="matrix" values="0 0 0 0 0.186575 0 0 0 0 0.326246 0 0 0 0 1 0 0 0 0.5 0"/>
<feBlend mode="normal" in2="BackgroundImageFix" result="effect1_dropShadow_250_1394"/>
<feBlend mode="normal" in="SourceGraphic" in2="effect1_dropShadow_250_1394" result="shape"/>
</filter>
<linearGradient id="paint0_linear_250_1394" x1="105.574" y1="27.2194" x2="-16.8996" y2="27.2194" gradientUnits="userSpaceOnUse">
<stop stop-color="#556595"/>
<stop offset="0.0736969" stop-color="#8B9FC4"/>
<stop offset="0.333088" stop-color="#BDCFEB"/>
<stop offset="0.423879" stop-color="#D2E0F7"/>
<stop offset="0.43148" stop-color="#A3B6DC"/>
<stop offset="0.688164" stop-color="#D2E0F7"/>
<stop offset="0.933231" stop-color="#CFDEF5"/>
<stop offset="1" stop-color="#9FB0D2"/>
</linearGradient>
<linearGradient id="paint1_linear_250_1394" x1="3.75338" y1="69.9662" x2="94.7258" y2="79.794" gradientUnits="userSpaceOnUse">
<stop stop-color="#B6CDF2"/>
<stop offset="1" stop-color="#9AB0E5"/>
</linearGradient>
<linearGradient id="paint2_linear_250_1394" x1="78.397" y1="37.6309" x2="23.1143" y2="37.6309" gradientUnits="userSpaceOnUse">
<stop stop-color="#CAD8FE"/>
<stop offset="0.197435" stop-color="#F2F2F4"/>
<stop offset="0.482505" stop-color="#9AADE1"/>
<stop offset="0.814851" stop-color="#A1B3E3"/>
<stop offset="1" stop-color="#87ABF8"/>
</linearGradient>
<linearGradient id="paint3_linear_250_1394" x1="14.3194" y1="49.155" x2="46.1348" y2="78.7609" gradientUnits="userSpaceOnUse">
<stop stop-color="#AACAFF"/>
<stop offset="1" stop-color="#C7D7FF"/>
</linearGradient>
<radialGradient id="paint4_radial_250_1394" cx="0" cy="0" r="1" gradientUnits="userSpaceOnUse" gradientTransform="translate(45.7357 29.0768) rotate(73.1723) scale(38.7463 65.2662)">
<stop stop-color="#85A7F8"/>
<stop offset="1" stop-color="#9BB2E6" stop-opacity="0.01"/>
</radialGradient>
<linearGradient id="paint5_linear_250_1394" x1="34.0904" y1="7.29837" x2="20" y2="7.29837" gradientUnits="userSpaceOnUse">
<stop stop-color="#47B6F4"/>
<stop offset="1" stop-color="#3376FE"/>
</linearGradient>
<linearGradient id="paint6_linear_250_1394" x1="82.2178" y1="4.9102" x2="68.695" y2="5.81429" gradientUnits="userSpaceOnUse">
<stop stop-color="#47B6F4"/>
<stop offset="1" stop-color="#3376FE"/>
</linearGradient>
<linearGradient id="paint7_linear_250_1394" x1="80.8838" y1="14.9074" x2="80.8838" y2="39.8509" gradientUnits="userSpaceOnUse">
<stop stop-color="#0867EB"/>
<stop offset="1" stop-color="#04B5FB"/>
</linearGradient>
<linearGradient id="paint8_linear_250_1394" x1="82.4044" y1="8.01854" x2="67.1015" y2="-5.87821" gradientUnits="userSpaceOnUse">
<stop stop-color="#98BFFF"/>
<stop offset="0.469399" stop-color="#E4ECF9"/>
<stop offset="0.526896" stop-color="#90BBFF"/>
<stop offset="1" stop-color="#C3DFFF"/>
</linearGradient>
<radialGradient id="paint9_radial_250_1394" cx="0" cy="0" r="1" gradientUnits="userSpaceOnUse" gradientTransform="translate(70.384 13.4141) rotate(-68.8141) scale(8.13431 7.64659)">
<stop stop-color="white" stop-opacity="0.524126"/>
<stop offset="1" stop-color="#D9E6F7" stop-opacity="0.01"/>
</radialGradient>
<linearGradient id="paint10_linear_250_1394" x1="64.5337" y1="-4.02768" x2="53.753" y2="10.103" gradientUnits="userSpaceOnUse">
<stop stop-color="white"/>
<stop offset="1" stop-color="#C8EDFF"/>
</linearGradient>
<linearGradient id="paint11_linear_250_1394" x1="86.9059" y1="15.9422" x2="48.8626" y2="-8.12186" gradientUnits="userSpaceOnUse">
<stop stop-color="#A9D2FF"/>
<stop offset="0.0531043" stop-color="#4985FA"/>
<stop offset="0.393015" stop-color="#4FA3FB"/>
<stop offset="0.460237" stop-color="#51AEFA"/>
<stop offset="0.498515" stop-color="#1646D2"/>
<stop offset="0.593357" stop-color="#2961FF"/>
<stop offset="0.730304" stop-color="#53B2F7"/>
<stop offset="0.950027" stop-color="#5DB0FF"/>
<stop offset="1" stop-color="#8BC3FB"/>
</linearGradient>
<linearGradient id="paint12_linear_250_1394" x1="27.2237" y1="22.3771" x2="56.4043" y2="49.776" gradientUnits="userSpaceOnUse">
<stop stop-color="#47B7F4"/>
<stop offset="0.495822" stop-color="#3272FF"/>
<stop offset="0.755682" stop-color="#3C8DFF"/>
<stop offset="1" stop-color="#256DF0"/>
</linearGradient>
<linearGradient id="paint13_linear_250_1394" x1="79.4677" y1="21.4437" x2="42.7635" y2="-3.26582" gradientUnits="userSpaceOnUse">
<stop stop-color="#D4E0F6"/>
<stop offset="0.433985" stop-color="#DAE8F3"/>
<stop offset="0.486291" stop-color="#5982FC"/>
<stop offset="0.66713" stop-color="#5B86FF"/>
<stop offset="1" stop-color="#C5E2FF"/>
</linearGradient>
<linearGradient id="paint14_linear_250_1394" x1="21.3288" y1="26.9844" x2="50.4901" y2="54.0994" gradientUnits="userSpaceOnUse">
<stop stop-color="#E2E9EC" stop-opacity="0.182731"/>
<stop offset="1" stop-color="#C5D8F1" stop-opacity="0.320395"/>
</linearGradient>
<linearGradient id="paint15_linear_250_1394" x1="59.5489" y1="39.4057" x2="44.246" y2="25.509" gradientUnits="userSpaceOnUse">
<stop stop-color="#98BFFF"/>
<stop offset="0.469399" stop-color="#E4ECF9"/>
<stop offset="0.526896" stop-color="#90BBFF"/>
<stop offset="1" stop-color="#C3DFFF"/>
</linearGradient>
<radialGradient id="paint16_radial_250_1394" cx="0" cy="0" r="1" gradientUnits="userSpaceOnUse" gradientTransform="translate(47.5285 44.8013) rotate(-68.8141) scale(8.13431 7.64659)">
<stop stop-color="white" stop-opacity="0.524126"/>
<stop offset="1" stop-color="#D9E6F7" stop-opacity="0.01"/>
</radialGradient>
<linearGradient id="paint17_linear_250_1394" x1="41.6787" y1="27.3595" x2="30.898" y2="41.4903" gradientUnits="userSpaceOnUse">
<stop stop-color="white"/>
<stop offset="1" stop-color="#C8EDFF"/>
</linearGradient>
<linearGradient id="paint18_linear_250_1394" x1="31.5981" y1="30.1348" x2="32.1665" y2="51.3634" gradientUnits="userSpaceOnUse">
<stop stop-color="white" stop-opacity="0.01"/>
<stop offset="1" stop-color="white"/>
</linearGradient>
<linearGradient id="paint19_linear_250_1394" x1="51.324" y1="16.0556" x2="49.8904" y2="21.6581" gradientUnits="userSpaceOnUse">
<stop stop-color="#AFD4FD"/>
<stop offset="1" stop-color="#AACFFE"/>
</linearGradient>
<linearGradient id="paint20_linear_250_1394" x1="49.9733" y1="21.9234" x2="48.1932" y2="26.7013" gradientUnits="userSpaceOnUse">
<stop stop-color="#AFD4FD"/>
<stop offset="1" stop-color="#AACFFE"/>
</linearGradient>
<linearGradient id="paint21_linear_250_1394" x1="59.519" y1="49.619" x2="61.3853" y2="52.3336" gradientUnits="userSpaceOnUse">
<stop stop-color="white"/>
<stop offset="0.604076" stop-color="#629DFF"/>
<stop offset="0.782764" stop-color="#3276E8"/>
<stop offset="1" stop-color="#3A84FF"/>
</linearGradient>
<linearGradient id="paint22_linear_250_1394" x1="69.1209" y1="43.5215" x2="70.3086" y2="45.2489" gradientUnits="userSpaceOnUse">
<stop stop-color="#A8CFFF"/>
<stop offset="0.604076" stop-color="#52AFFF"/>
<stop offset="0.782764" stop-color="#04AEFF"/>
<stop offset="1" stop-color="white"/>
</linearGradient>
<linearGradient id="paint23_linear_250_1394" x1="39.1233" y1="48.9927" x2="40.311" y2="50.7201" gradientUnits="userSpaceOnUse">
<stop stop-color="#A8CFFF"/>
<stop offset="0.604076" stop-color="#52AFFF"/>
<stop offset="0.782764" stop-color="#04AEFF"/>
<stop offset="1" stop-color="white"/>
</linearGradient>
<linearGradient id="paint24_linear_250_1394" x1="27.7824" y1="44.5041" x2="28.6308" y2="45.738" gradientUnits="userSpaceOnUse">
<stop stop-color="#A8CFFF"/>
<stop offset="0.604076" stop-color="#52AFFF"/>
<stop offset="0.782764" stop-color="#04AEFF"/>
<stop offset="1" stop-color="white"/>
</linearGradient>
<linearGradient id="paint25_linear_250_1394" x1="26.9255" y1="39.3209" x2="27.7738" y2="40.5548" gradientUnits="userSpaceOnUse">
<stop stop-color="#A8CFFF"/>
<stop offset="0.604076" stop-color="#52AFFF"/>
<stop offset="0.782764" stop-color="#04AEFF"/>
<stop offset="1" stop-color="white"/>
</linearGradient>
<linearGradient id="paint26_linear_250_1394" x1="24.1554" y1="36.2722" x2="24.6644" y2="37.0125" gradientUnits="userSpaceOnUse">
<stop stop-color="#A8CFFF"/>
<stop offset="0.604076" stop-color="#52AFFF"/>
<stop offset="0.782764" stop-color="#04AEFF"/>
<stop offset="1" stop-color="white"/>
</linearGradient>
<linearGradient id="paint27_linear_250_1394" x1="78.1505" y1="41.7434" x2="78.6595" y2="42.4837" gradientUnits="userSpaceOnUse">
<stop stop-color="#A8CFFF"/>
<stop offset="0.604076" stop-color="#52AFFF"/>
<stop offset="0.782764" stop-color="#04AEFF"/>
<stop offset="1" stop-color="white"/>
</linearGradient>
<linearGradient id="paint28_linear_250_1394" x1="78.1505" y1="37.7119" x2="78.6595" y2="38.4522" gradientUnits="userSpaceOnUse">
<stop stop-color="#A8CFFF"/>
<stop offset="0.604076" stop-color="#52AFFF"/>
<stop offset="0.782764" stop-color="#04AEFF"/>
<stop offset="1" stop-color="white"/>
</linearGradient>
<linearGradient id="paint29_linear_250_1394" x1="79.8649" y1="35.6963" x2="80.3739" y2="36.4366" gradientUnits="userSpaceOnUse">
<stop stop-color="#A8CFFF"/>
<stop offset="0.604076" stop-color="#52AFFF"/>
<stop offset="0.782764" stop-color="#04AEFF"/>
<stop offset="1" stop-color="white"/>
</linearGradient>
<linearGradient id="paint30_linear_250_1394" x1="40.3583" y1="39.7086" x2="45.5438" y2="44.6719" gradientUnits="userSpaceOnUse">
<stop stop-color="#47B7F4"/>
<stop offset="0.495822" stop-color="#3272FF"/>
<stop offset="0.755682" stop-color="#3C8DFF"/>
<stop offset="1" stop-color="#256DF0"/>
</linearGradient>
</defs>
</svg>
