<svg width="106" height="89" viewBox="0 0 106 89" fill="none" xmlns="http://www.w3.org/2000/svg">
<g id="Group 1739332404">
<g id="&#231;&#188;&#150;&#231;&#187;&#132; 25&#229;&#164;&#135;&#228;&#187;&#189;">
<g id="&#231;&#188;&#150;&#231;&#187;&#132; 5&#229;&#164;&#135;&#228;&#187;&#189; 12">
<g id="&#231;&#159;&#169;&#229;&#189;&#162;&#229;&#164;&#135;&#228;&#187;&#189; 76" filter="url(#filter0_d_250_1392)">
<path fill-rule="evenodd" clip-rule="evenodd" d="M52.7871 37.2789L105.574 52.7321V61.2679L52.7871 88L0 61.2679L0.44057 52.7321L52.7871 37.2789Z" fill="url(#paint0_linear_250_1392)"/>
</g>
<g id="&#231;&#159;&#169;&#229;&#189;&#162;&#229;&#164;&#135;&#228;&#187;&#189; 77" filter="url(#filter1_i_250_1392)">
<path fill-rule="evenodd" clip-rule="evenodd" d="M52.7871 26L105.574 52.7321L52.7871 79.4641L0 52.7321L52.7871 26Z" fill="url(#paint1_linear_250_1392)"/>
</g>
<mask id="mask0_250_1392" style="mask-type:luminance" maskUnits="userSpaceOnUse" x="0" y="26" width="106" height="54">
<path id="&#231;&#159;&#169;&#229;&#189;&#162;&#229;&#164;&#135;&#228;&#187;&#189; 77_2" fill-rule="evenodd" clip-rule="evenodd" d="M52.7871 26L105.574 52.7321L52.7871 79.4641L0 52.7321L52.7871 26Z" fill="white"/>
</mask>
<g mask="url(#mask0_250_1392)">
<g id="&#230;&#164;&#173;&#229;&#156;&#134;&#229;&#189;&#162;" filter="url(#filter2_f_250_1392)">
<ellipse cx="53.6959" cy="62.3368" rx="27.3757" ry="10.6979" transform="rotate(-3 53.6959 62.3368)" fill="#B1D3FF" fill-opacity="0.539915"/>
</g>
</g>
</g>
</g>
<g id="Group 1739332401">
<g id="&#231;&#188;&#150;&#231;&#187;&#132;&#229;&#164;&#135;&#228;&#187;&#189; 4">
<g id="&#231;&#188;&#150;&#231;&#187;&#132; 33">
<g id="&#231;&#159;&#169;&#229;&#189;&#162;" filter="url(#filter3_b_250_1392)">
<path fill-rule="evenodd" clip-rule="evenodd" d="M78.6147 19.0136L41.6314 2.87622C40.7134 2.47566 39.9692 2.94649 39.9692 3.92784V31.4697C39.9692 32.451 40.7134 33.5713 41.6314 33.9718L78.6147 50.1092C79.5327 50.5098 80.2769 50.039 80.2769 49.0576V21.5158C80.2769 20.5344 79.5327 19.4142 78.6147 19.0136Z" fill="url(#paint2_linear_250_1392)"/>
<path fill-rule="evenodd" clip-rule="evenodd" d="M78.6147 19.0136L41.6314 2.87622C40.7134 2.47566 39.9692 2.94649 39.9692 3.92784V31.4697C39.9692 32.451 40.7134 33.5713 41.6314 33.9718L78.6147 50.1092C79.5327 50.5098 80.2769 50.039 80.2769 49.0576V21.5158C80.2769 20.5344 79.5327 19.4142 78.6147 19.0136Z" stroke="url(#paint3_linear_250_1392)" stroke-width="1.308"/>
</g>
<g id="&#231;&#159;&#169;&#229;&#189;&#162;_2" filter="url(#filter4_b_250_1392)">
<path fill-rule="evenodd" clip-rule="evenodd" d="M74.2328 22.6766L37.2495 6.53919C36.3315 6.13863 35.5873 6.60945 35.5873 7.5908V35.1326C35.5873 36.114 36.3315 37.2342 37.2495 37.6348L74.2328 53.7722C75.1508 54.1727 75.895 53.7019 75.895 52.7206V25.1787C75.895 24.1974 75.1508 23.0771 74.2328 22.6766Z" fill="url(#paint4_linear_250_1392)"/>
<path fill-rule="evenodd" clip-rule="evenodd" d="M74.2328 22.6766L37.2495 6.53919C36.3315 6.13863 35.5873 6.60945 35.5873 7.5908V35.1326C35.5873 36.114 36.3315 37.2342 37.2495 37.6348L74.2328 53.7722C75.1508 54.1727 75.895 53.7019 75.895 52.7206V25.1787C75.895 24.1974 75.1508 23.0771 74.2328 22.6766Z" stroke="url(#paint5_linear_250_1392)" stroke-width="1.308"/>
</g>
<g id="&#231;&#159;&#169;&#229;&#189;&#162;_3" filter="url(#filter5_b_250_1392)">
<path fill-rule="evenodd" clip-rule="evenodd" d="M70.2167 26.3395L33.2334 10.2022C32.3154 9.80159 31.5712 10.2724 31.5712 11.2538V38.7956C31.5712 39.7769 32.3154 40.8972 33.2334 41.2978L70.2167 57.4351C71.1347 57.8357 71.8789 57.3649 71.8789 56.3835V28.8417C71.8789 27.8604 71.1347 26.7401 70.2167 26.3395Z" fill="url(#paint6_linear_250_1392)"/>
<path fill-rule="evenodd" clip-rule="evenodd" d="M70.2167 26.3395L33.2334 10.2022C32.3154 9.80159 31.5712 10.2724 31.5712 11.2538V38.7956C31.5712 39.7769 32.3154 40.8972 33.2334 41.2978L70.2167 57.4351C71.1347 57.8357 71.8789 57.3649 71.8789 56.3835V28.8417C71.8789 27.8604 71.1347 26.7401 70.2167 26.3395Z" stroke="url(#paint7_linear_250_1392)" stroke-width="1.308"/>
</g>
<path id="&#231;&#159;&#169;&#229;&#189;&#162;&#229;&#164;&#135;&#228;&#187;&#189; 57" fill-rule="evenodd" clip-rule="evenodd" d="M66.9116 31.0634L31.9816 15.822C30.6825 15.2551 29.1971 15.3036 27.9377 15.9541L25.876 17.0189L33.7623 40.92C33.7623 41.9014 34.5065 43.0216 35.4245 43.4222L64.4527 64.5375C67.0377 62.7037 68.5737 59.7308 68.5737 56.5614V33.5656C68.5737 32.5842 67.8296 31.464 66.9116 31.0634Z" fill="url(#paint8_linear_250_1392)"/>
<g id="&#231;&#159;&#169;&#229;&#189;&#162;_4" filter="url(#filter6_i_250_1392)">
<path fill-rule="evenodd" clip-rule="evenodd" d="M63.6454 33.2991L26.6621 17.1617C25.7441 16.7612 24.9999 17.232 24.9999 18.2134V45.7552C24.9999 46.7365 25.7441 47.8568 26.6621 48.2574L63.6454 64.3947C64.5634 64.7953 65.3076 64.3245 65.3076 63.3431V35.8013C65.3076 34.8199 64.5634 33.6997 63.6454 33.2991Z" fill="url(#paint9_linear_250_1392)"/>
</g>
<g id="&#231;&#159;&#169;&#229;&#189;&#162;_5" filter="url(#filter7_ii_250_1392)">
<path fill-rule="evenodd" clip-rule="evenodd" d="M62.2377 34.9108L28.0684 20.0012C27.2202 19.6311 26.5327 20.0661 26.5327 20.9728V43.8946C26.5327 44.8013 27.2202 45.8363 28.0684 46.2064L62.2377 61.1159C63.0859 61.486 63.7734 61.051 63.7734 60.1443V37.2225C63.7734 36.3159 63.0859 35.2808 62.2377 34.9108Z" fill="url(#paint10_linear_250_1392)"/>
<path fill-rule="evenodd" clip-rule="evenodd" d="M62.2377 34.9108L28.0684 20.0012C27.2202 19.6311 26.5327 20.0661 26.5327 20.9728V43.8946C26.5327 44.8013 27.2202 45.8363 28.0684 46.2064L62.2377 61.1159C63.0859 61.486 63.7734 61.051 63.7734 60.1443V37.2225C63.7734 36.3159 63.0859 35.2808 62.2377 34.9108Z" fill="url(#paint11_linear_250_1392)"/>
</g>
<g id="&#231;&#188;&#150;&#231;&#187;&#132; 43">
<ellipse id="&#230;&#164;&#173;&#229;&#156;&#134;&#229;&#189;&#162;_2" cx="2.19716" cy="2.19125" rx="2.19716" ry="2.19125" transform="matrix(-0.292372 0.956305 0.956305 0.292372 68.1289 25.2744)" fill="url(#paint12_linear_250_1392)"/>
<ellipse id="&#230;&#164;&#173;&#229;&#156;&#134;&#229;&#189;&#162;&#229;&#164;&#135;&#228;&#187;&#189; 6" cx="1.09858" cy="1.09562" rx="1.09858" ry="1.09562" transform="matrix(-0.292372 0.956305 0.956305 0.292372 57.9019 14.1913)" fill="url(#paint13_linear_250_1392)"/>
<ellipse id="&#230;&#164;&#173;&#229;&#156;&#134;&#229;&#189;&#162;&#229;&#164;&#135;&#228;&#187;&#189; 7" cx="1.09858" cy="1.09562" rx="1.09858" ry="1.09562" transform="matrix(-0.292372 0.956305 0.956305 0.292372 77.6177 26.6454)" fill="url(#paint14_linear_250_1392)"/>
<ellipse id="&#230;&#164;&#173;&#229;&#156;&#134;&#229;&#189;&#162;&#229;&#164;&#135;&#228;&#187;&#189; 8" cx="1.09858" cy="1.09562" rx="1.09858" ry="1.09562" transform="matrix(-0.292372 0.956305 0.956305 0.292372 73.9668 43.1287)" fill="url(#paint15_linear_250_1392)"/>
<ellipse id="&#230;&#164;&#173;&#229;&#156;&#134;&#229;&#189;&#162;&#229;&#164;&#135;&#228;&#187;&#189; 9" cx="1.09858" cy="1.09562" rx="1.09858" ry="1.09562" transform="matrix(-0.292372 0.956305 0.956305 0.292372 36.3608 12.7261)" fill="url(#paint16_linear_250_1392)"/>
<ellipse id="&#230;&#164;&#173;&#229;&#156;&#134;&#229;&#189;&#162;&#229;&#164;&#135;&#228;&#187;&#189; 10" cx="2.19716" cy="2.19125" rx="2.19716" ry="2.19125" transform="matrix(-0.292372 0.956305 0.956305 0.292372 40.0156 0)" fill="url(#paint17_linear_250_1392)"/>
</g>
</g>
<g id="&#231;&#188;&#150;&#231;&#187;&#132; 38">
<g id="&#231;&#188;&#150;&#231;&#187;&#132; 34">
<path id="&#232;&#183;&#175;&#229;&#190;&#132; 32&#229;&#164;&#135;&#228;&#187;&#189;" fill-rule="evenodd" clip-rule="evenodd" d="M44.8945 37.7358V51.1907L40.5035 49.333V35.881L44.8945 37.7358Z" fill="url(#paint18_linear_250_1392)"/>
<path id="&#232;&#183;&#175;&#229;&#190;&#132; 53&#229;&#164;&#135;&#228;&#187;&#189;" fill-rule="evenodd" clip-rule="evenodd" d="M44.8944 37.7358L48.3662 35.881L44.2535 34.0239L40.5033 35.881L44.8944 37.7358Z" fill="url(#paint19_linear_250_1392)"/>
<path id="&#232;&#183;&#175;&#229;&#190;&#132; 54&#229;&#164;&#135;&#228;&#187;&#189;" fill-rule="evenodd" clip-rule="evenodd" d="M48.3662 35.881V49.0209L44.8944 51.1907V37.7358L48.3662 35.881Z" fill="url(#paint20_linear_250_1392)"/>
</g>
<g id="&#231;&#188;&#150;&#231;&#187;&#132; 34&#229;&#164;&#135;&#228;&#187;&#189;">
<path id="&#232;&#183;&#175;&#229;&#190;&#132; 32&#229;&#164;&#135;&#228;&#187;&#189;_2" fill-rule="evenodd" clip-rule="evenodd" d="M35.4014 30.0436V46.7951L31.0103 44.9374V28.1887L35.4014 30.0436Z" fill="url(#paint21_linear_250_1392)"/>
<path id="&#232;&#183;&#175;&#229;&#190;&#132; 53&#229;&#164;&#135;&#228;&#187;&#189;_2" fill-rule="evenodd" clip-rule="evenodd" d="M35.4012 30.0437L38.873 28.1889L34.7603 26.3318L31.0101 28.1889L35.4012 30.0437Z" fill="url(#paint22_linear_250_1392)"/>
<path id="&#232;&#183;&#175;&#229;&#190;&#132; 54&#229;&#164;&#135;&#228;&#187;&#189;_2" fill-rule="evenodd" clip-rule="evenodd" d="M38.873 28.1887V44.6253L35.4012 46.7951V30.0436L38.873 28.1887Z" fill="url(#paint23_linear_250_1392)"/>
</g>
<g id="&#231;&#188;&#150;&#231;&#187;&#132; 37">
<path id="&#232;&#183;&#175;&#229;&#190;&#132; 32" fill-rule="evenodd" clip-rule="evenodd" d="M54.3867 43.5967V55.2201L49.9956 53.3623V41.7418L54.3867 43.5967Z" fill="url(#paint24_linear_250_1392)"/>
<path id="&#232;&#183;&#175;&#229;&#190;&#132; 53" fill-rule="evenodd" clip-rule="evenodd" d="M54.3866 43.5966L57.8584 41.7417L53.7457 39.8846L49.9955 41.7417L54.3866 43.5966Z" fill="url(#paint25_linear_250_1392)"/>
<path id="&#232;&#183;&#175;&#229;&#190;&#132; 54" fill-rule="evenodd" clip-rule="evenodd" d="M57.8584 41.7418V53.0502L54.3866 55.2201V43.5967L57.8584 41.7418Z" fill="url(#paint26_linear_250_1392)"/>
</g>
</g>
</g>
</g>
</g>
<defs>
<filter id="filter0_d_250_1392" x="0" y="37.2789" width="105.574" height="51.7211" filterUnits="userSpaceOnUse" color-interpolation-filters="sRGB">
<feFlood flood-opacity="0" result="BackgroundImageFix"/>
<feColorMatrix in="SourceAlpha" type="matrix" values="0 0 0 0 0 0 0 0 0 0 0 0 0 0 0 0 0 0 127 0" result="hardAlpha"/>
<feOffset dy="1"/>
<feColorMatrix type="matrix" values="0 0 0 0 0.469187 0 0 0 0 0.503882 0 0 0 0 0.580577 0 0 0 0.251899 0"/>
<feBlend mode="normal" in2="BackgroundImageFix" result="effect1_dropShadow_250_1392"/>
<feBlend mode="normal" in="SourceGraphic" in2="effect1_dropShadow_250_1392" result="shape"/>
</filter>
<filter id="filter1_i_250_1392" x="0" y="26" width="105.574" height="53.4641" filterUnits="userSpaceOnUse" color-interpolation-filters="sRGB">
<feFlood flood-opacity="0" result="BackgroundImageFix"/>
<feBlend mode="normal" in="SourceGraphic" in2="BackgroundImageFix" result="shape"/>
<feColorMatrix in="SourceAlpha" type="matrix" values="0 0 0 0 0 0 0 0 0 0 0 0 0 0 0 0 0 0 127 0" result="hardAlpha"/>
<feOffset dy="-1"/>
<feComposite in2="hardAlpha" operator="arithmetic" k2="-1" k3="1"/>
<feColorMatrix type="matrix" values="0 0 0 0 1 0 0 0 0 1 0 0 0 0 1 0 0 0 0.625209 0"/>
<feBlend mode="normal" in2="shape" result="effect1_innerShadow_250_1392"/>
</filter>
<filter id="filter2_f_250_1392" x="-22.1201" y="3.08445" width="151.632" height="118.505" filterUnits="userSpaceOnUse" color-interpolation-filters="sRGB">
<feFlood flood-opacity="0" result="BackgroundImageFix"/>
<feBlend mode="normal" in="SourceGraphic" in2="BackgroundImageFix" result="shape"/>
<feGaussianBlur stdDeviation="24.2361" result="effect1_foregroundBlur_250_1392"/>
</filter>
<filter id="filter3_b_250_1392" x="14.4263" y="-22.8092" width="91.3931" height="98.6039" filterUnits="userSpaceOnUse" color-interpolation-filters="sRGB">
<feFlood flood-opacity="0" result="BackgroundImageFix"/>
<feGaussianBlur in="BackgroundImageFix" stdDeviation="12.4443"/>
<feComposite in2="SourceAlpha" operator="in" result="effect1_backgroundBlur_250_1392"/>
<feBlend mode="normal" in="SourceGraphic" in2="effect1_backgroundBlur_250_1392" result="shape"/>
</filter>
<filter id="filter4_b_250_1392" x="10.0444" y="-19.1462" width="91.3931" height="98.6039" filterUnits="userSpaceOnUse" color-interpolation-filters="sRGB">
<feFlood flood-opacity="0" result="BackgroundImageFix"/>
<feGaussianBlur in="BackgroundImageFix" stdDeviation="12.4443"/>
<feComposite in2="SourceAlpha" operator="in" result="effect1_backgroundBlur_250_1392"/>
<feBlend mode="normal" in="SourceGraphic" in2="effect1_backgroundBlur_250_1392" result="shape"/>
</filter>
<filter id="filter5_b_250_1392" x="6.02832" y="-15.4833" width="91.3931" height="98.6039" filterUnits="userSpaceOnUse" color-interpolation-filters="sRGB">
<feFlood flood-opacity="0" result="BackgroundImageFix"/>
<feGaussianBlur in="BackgroundImageFix" stdDeviation="12.4443"/>
<feComposite in2="SourceAlpha" operator="in" result="effect1_backgroundBlur_250_1392"/>
<feBlend mode="normal" in="SourceGraphic" in2="effect1_backgroundBlur_250_1392" result="shape"/>
</filter>
<filter id="filter6_i_250_1392" x="25" y="17.0189" width="40.3076" height="47.5187" filterUnits="userSpaceOnUse" color-interpolation-filters="sRGB">
<feFlood flood-opacity="0" result="BackgroundImageFix"/>
<feBlend mode="normal" in="SourceGraphic" in2="BackgroundImageFix" result="shape"/>
<feColorMatrix in="SourceAlpha" type="matrix" values="0 0 0 0 0 0 0 0 0 0 0 0 0 0 0 0 0 0 127 0" result="hardAlpha"/>
<feOffset dy="-1"/>
<feComposite in2="hardAlpha" operator="arithmetic" k2="-1" k3="1"/>
<feColorMatrix type="matrix" values="0 0 0 0 1 0 0 0 0 1 0 0 0 0 1 0 0 0 0.36908 0"/>
<feBlend mode="normal" in2="shape" result="effect1_innerShadow_250_1392"/>
</filter>
<filter id="filter7_ii_250_1392" x="25.5327" y="19.8693" width="38.2407" height="42.3787" filterUnits="userSpaceOnUse" color-interpolation-filters="sRGB">
<feFlood flood-opacity="0" result="BackgroundImageFix"/>
<feBlend mode="normal" in="SourceGraphic" in2="BackgroundImageFix" result="shape"/>
<feColorMatrix in="SourceAlpha" type="matrix" values="0 0 0 0 0 0 0 0 0 0 0 0 0 0 0 0 0 0 127 0" result="hardAlpha"/>
<feOffset dy="-1"/>
<feComposite in2="hardAlpha" operator="arithmetic" k2="-1" k3="1"/>
<feColorMatrix type="matrix" values="0 0 0 0 1 0 0 0 0 1 0 0 0 0 1 0 0 0 0.919469 0"/>
<feBlend mode="normal" in2="shape" result="effect1_innerShadow_250_1392"/>
<feColorMatrix in="SourceAlpha" type="matrix" values="0 0 0 0 0 0 0 0 0 0 0 0 0 0 0 0 0 0 127 0" result="hardAlpha"/>
<feOffset dx="-1" dy="1"/>
<feGaussianBlur stdDeviation="2"/>
<feComposite in2="hardAlpha" operator="arithmetic" k2="-1" k3="1"/>
<feColorMatrix type="matrix" values="0 0 0 0 0.661362 0 0 0 0 0.730463 0 0 0 0 0.736734 0 0 0 0.581777 0"/>
<feBlend mode="normal" in2="effect1_innerShadow_250_1392" result="effect2_innerShadow_250_1392"/>
</filter>
<linearGradient id="paint0_linear_250_1392" x1="105.574" y1="33.2194" x2="-16.8996" y2="33.2194" gradientUnits="userSpaceOnUse">
<stop stop-color="#556595"/>
<stop offset="0.0736969" stop-color="#8B9FC4"/>
<stop offset="0.333088" stop-color="#BDCFEB"/>
<stop offset="0.423879" stop-color="#D2E0F7"/>
<stop offset="0.43148" stop-color="#A3B6DC"/>
<stop offset="0.688164" stop-color="#D2E0F7"/>
<stop offset="0.933231" stop-color="#CFDEF5"/>
<stop offset="1" stop-color="#9FB0D2"/>
</linearGradient>
<linearGradient id="paint1_linear_250_1392" x1="3.75338" y1="75.9662" x2="94.7258" y2="85.794" gradientUnits="userSpaceOnUse">
<stop stop-color="#B6CDF2"/>
<stop offset="1" stop-color="#9AB0E5"/>
</linearGradient>
<linearGradient id="paint2_linear_250_1392" x1="75.4837" y1="6.27271" x2="79.1364" y2="48.6117" gradientUnits="userSpaceOnUse">
<stop stop-color="#B3D2FF" stop-opacity="0.304705"/>
<stop offset="1" stop-color="#87C5FF" stop-opacity="0.409133"/>
</linearGradient>
<linearGradient id="paint3_linear_250_1392" x1="87.5009" y1="36.1897" x2="57.5289" y2="49.203" gradientUnits="userSpaceOnUse">
<stop stop-color="#2276FF" stop-opacity="0.639727"/>
<stop offset="1" stop-color="white"/>
</linearGradient>
<linearGradient id="paint4_linear_250_1392" x1="71.1018" y1="9.93567" x2="74.7545" y2="52.2747" gradientUnits="userSpaceOnUse">
<stop stop-color="#B3D2FF" stop-opacity="0.304705"/>
<stop offset="1" stop-color="#87C5FF" stop-opacity="0.409133"/>
</linearGradient>
<linearGradient id="paint5_linear_250_1392" x1="83.119" y1="39.8527" x2="53.1471" y2="52.8659" gradientUnits="userSpaceOnUse">
<stop stop-color="#2276FF" stop-opacity="0.639727"/>
<stop offset="1" stop-color="white"/>
</linearGradient>
<linearGradient id="paint6_linear_250_1392" x1="67.0857" y1="13.5986" x2="70.7384" y2="55.9376" gradientUnits="userSpaceOnUse">
<stop stop-color="#B3D2FF" stop-opacity="0.304705"/>
<stop offset="1" stop-color="#87C5FF" stop-opacity="0.409133"/>
</linearGradient>
<linearGradient id="paint7_linear_250_1392" x1="79.1029" y1="43.5156" x2="49.131" y2="56.5289" gradientUnits="userSpaceOnUse">
<stop stop-color="#2276FF" stop-opacity="0.639727"/>
<stop offset="1" stop-color="white"/>
</linearGradient>
<linearGradient id="paint8_linear_250_1392" x1="45.8455" y1="90.0693" x2="-4.4323" y2="48.0285" gradientUnits="userSpaceOnUse">
<stop stop-color="#62A0E4"/>
<stop offset="0.0453631" stop-color="#4985FA"/>
<stop offset="0.319496" stop-color="#4FA3FB"/>
<stop offset="0.356882" stop-color="#51AEFA"/>
<stop offset="0.403435" stop-color="#1646D2"/>
<stop offset="0.561985" stop-color="#2961FF"/>
<stop offset="0.702753" stop-color="#53B2F7"/>
<stop offset="0.965019" stop-color="#2F92F1"/>
<stop offset="1" stop-color="#8BC3FB"/>
</linearGradient>
<linearGradient id="paint9_linear_250_1392" x1="62.307" y1="71.8967" x2="9.3973" y2="66.7878" gradientUnits="userSpaceOnUse">
<stop stop-color="#47B7F4"/>
<stop offset="0.320455" stop-color="#57AFF8"/>
<stop offset="0.433784" stop-color="#3272FF"/>
<stop offset="0.755682" stop-color="#3786F5"/>
<stop offset="1" stop-color="#256DF0"/>
<stop offset="1" stop-color="#256DF0"/>
</linearGradient>
<linearGradient id="paint10_linear_250_1392" x1="52.2894" y1="8.15686" x2="79.8186" y2="43.9891" gradientUnits="userSpaceOnUse">
<stop stop-color="white"/>
<stop offset="1" stop-color="#C8EDFF"/>
</linearGradient>
<linearGradient id="paint11_linear_250_1392" x1="52.8612" y1="29.9442" x2="46.4905" y2="45.0413" gradientUnits="userSpaceOnUse">
<stop stop-color="#64A2FF"/>
<stop offset="1" stop-color="white" stop-opacity="0.01"/>
</linearGradient>
<linearGradient id="paint12_linear_250_1392" x1="-0.667861" y1="1.28746" x2="1.90451" y2="5.06871" gradientUnits="userSpaceOnUse">
<stop stop-color="#A8CFFF"/>
<stop offset="0.604076" stop-color="#52AFFF"/>
<stop offset="0.782764" stop-color="#04AEFF"/>
<stop offset="1" stop-color="white"/>
</linearGradient>
<linearGradient id="paint13_linear_250_1392" x1="-0.333931" y1="0.643728" x2="0.952255" y2="2.53435" gradientUnits="userSpaceOnUse">
<stop stop-color="#A8CFFF"/>
<stop offset="0.604076" stop-color="#52AFFF"/>
<stop offset="0.782764" stop-color="#04AEFF"/>
<stop offset="1" stop-color="white"/>
</linearGradient>
<linearGradient id="paint14_linear_250_1392" x1="-0.333931" y1="0.643728" x2="0.952255" y2="2.53435" gradientUnits="userSpaceOnUse">
<stop stop-color="#A8CFFF"/>
<stop offset="0.604076" stop-color="#52AFFF"/>
<stop offset="0.782764" stop-color="#04AEFF"/>
<stop offset="1" stop-color="white"/>
</linearGradient>
<linearGradient id="paint15_linear_250_1392" x1="-0.333931" y1="0.643728" x2="0.952255" y2="2.53435" gradientUnits="userSpaceOnUse">
<stop stop-color="#A8CFFF"/>
<stop offset="0.604076" stop-color="#52AFFF"/>
<stop offset="0.782764" stop-color="#04AEFF"/>
<stop offset="1" stop-color="white"/>
</linearGradient>
<linearGradient id="paint16_linear_250_1392" x1="-0.333931" y1="0.643728" x2="0.952255" y2="2.53435" gradientUnits="userSpaceOnUse">
<stop stop-color="#A8CFFF"/>
<stop offset="0.604076" stop-color="#52AFFF"/>
<stop offset="0.782764" stop-color="#04AEFF"/>
<stop offset="1" stop-color="white"/>
</linearGradient>
<linearGradient id="paint17_linear_250_1392" x1="-0.667861" y1="1.28746" x2="1.90451" y2="5.06871" gradientUnits="userSpaceOnUse">
<stop stop-color="#A8CFFF"/>
<stop offset="0.604076" stop-color="#52AFFF"/>
<stop offset="0.782764" stop-color="#04AEFF"/>
<stop offset="1" stop-color="white"/>
</linearGradient>
<linearGradient id="paint18_linear_250_1392" x1="40.5761" y1="35.3747" x2="44.9715" y2="35.4164" gradientUnits="userSpaceOnUse">
<stop stop-color="#6DA4FF"/>
<stop offset="1" stop-color="#0067FF"/>
</linearGradient>
<linearGradient id="paint19_linear_250_1392" x1="40.5033" y1="34.0239" x2="48.3662" y2="34.0239" gradientUnits="userSpaceOnUse">
<stop stop-color="#005CF4"/>
<stop offset="1" stop-color="#2B81FF"/>
</linearGradient>
<linearGradient id="paint20_linear_250_1392" x1="48.2802" y1="55.0544" x2="43.6768" y2="54.3541" gradientUnits="userSpaceOnUse">
<stop stop-color="#6DA4FF"/>
<stop offset="1" stop-color="#0067FF"/>
</linearGradient>
<linearGradient id="paint21_linear_250_1392" x1="31.0829" y1="27.5734" x2="35.4785" y2="27.6078" gradientUnits="userSpaceOnUse">
<stop stop-color="#6DA4FF"/>
<stop offset="1" stop-color="#0067FF"/>
</linearGradient>
<linearGradient id="paint22_linear_250_1392" x1="31.0101" y1="26.3318" x2="38.873" y2="26.3318" gradientUnits="userSpaceOnUse">
<stop stop-color="#005CF4"/>
<stop offset="1" stop-color="#2B81FF"/>
</linearGradient>
<linearGradient id="paint23_linear_250_1392" x1="38.787" y1="51.4907" x2="34.1498" y2="50.9103" gradientUnits="userSpaceOnUse">
<stop stop-color="#6DA4FF"/>
<stop offset="1" stop-color="#0067FF"/>
</linearGradient>
<linearGradient id="paint24_linear_250_1392" x1="50.0682" y1="41.2961" x2="54.4636" y2="41.3435" gradientUnits="userSpaceOnUse">
<stop stop-color="#6DA4FF"/>
<stop offset="1" stop-color="#0067FF"/>
</linearGradient>
<linearGradient id="paint25_linear_250_1392" x1="49.9955" y1="39.8846" x2="57.8584" y2="39.8846" gradientUnits="userSpaceOnUse">
<stop stop-color="#005CF4"/>
<stop offset="1" stop-color="#2B81FF"/>
</linearGradient>
<linearGradient id="paint26_linear_250_1392" x1="57.7724" y1="58.6215" x2="53.199" y2="57.8313" gradientUnits="userSpaceOnUse">
<stop stop-color="#6DA4FF"/>
<stop offset="1" stop-color="#0067FF"/>
</linearGradient>
</defs>
</svg>
