<svg width="106" height="81" viewBox="0 0 106 81" fill="none" xmlns="http://www.w3.org/2000/svg">
<g id="Group 1739332405">
<g id="&#231;&#188;&#150;&#231;&#187;&#132; 25&#229;&#164;&#135;&#228;&#187;&#189;">
<g id="&#231;&#188;&#150;&#231;&#187;&#132; 5&#229;&#164;&#135;&#228;&#187;&#189; 12">
<g id="&#231;&#159;&#169;&#229;&#189;&#162;&#229;&#164;&#135;&#228;&#187;&#189; 76" filter="url(#filter0_d_250_1393)">
<path fill-rule="evenodd" clip-rule="evenodd" d="M52.7871 29.2789L105.574 44.7321V53.2679L52.7871 80L0 53.2679L0.44057 44.7321L52.7871 29.2789Z" fill="url(#paint0_linear_250_1393)"/>
</g>
<g id="&#231;&#159;&#169;&#229;&#189;&#162;&#229;&#164;&#135;&#228;&#187;&#189; 77" filter="url(#filter1_i_250_1393)">
<path fill-rule="evenodd" clip-rule="evenodd" d="M52.7871 18L105.574 44.7321L52.7871 71.4641L0 44.7321L52.7871 18Z" fill="url(#paint1_linear_250_1393)"/>
</g>
<mask id="mask0_250_1393" style="mask-type:luminance" maskUnits="userSpaceOnUse" x="0" y="18" width="106" height="54">
<path id="&#231;&#159;&#169;&#229;&#189;&#162;&#229;&#164;&#135;&#228;&#187;&#189; 77_2" fill-rule="evenodd" clip-rule="evenodd" d="M52.7871 18L105.574 44.7321L52.7871 71.4641L0 44.7321L52.7871 18Z" fill="white"/>
</mask>
<g mask="url(#mask0_250_1393)">
<g id="&#230;&#164;&#173;&#229;&#156;&#134;&#229;&#189;&#162;" filter="url(#filter2_f_250_1393)">
<ellipse cx="53.6959" cy="54.3368" rx="27.3757" ry="10.6979" transform="rotate(-3 53.6959 54.3368)" fill="#B1D3FF" fill-opacity="0.539915"/>
</g>
</g>
</g>
</g>
<g id="&#231;&#188;&#150;&#231;&#187;&#132; 44">
<g id="&#231;&#188;&#150;&#231;&#187;&#132; 43">
<g id="&#231;&#188;&#150;&#231;&#187;&#132; 26">
<g id="&#231;&#188;&#150;&#231;&#187;&#132; 5&#229;&#164;&#135;&#228;&#187;&#189; 4">
<g id="&#232;&#183;&#175;&#229;&#190;&#132;" filter="url(#filter3_d_250_1393)">
<path fill-rule="evenodd" clip-rule="evenodd" d="M38.5862 28.2729C38.5751 28.0281 38.7096 27.8 38.9283 27.6925L51.7214 20.2561C52.2347 19.9616 53.1174 19.9977 53.7042 20.3387L66.2116 27.6098C66.5692 27.8182 66.6889 28.0731 66.6889 28.3418C66.6889 28.3952 66.6889 33.1432 66.6889 33.1949C66.6991 33.4395 66.5649 33.6671 66.3468 33.7753L53.5519 41.2117C53.0387 41.5079 52.1577 41.47 51.5709 41.1291L39.0618 33.8597C38.7025 33.6496 38.5845 33.3912 38.5845 33.1277C38.5776 33.0726 38.5845 28.3814 38.5862 28.2729Z" fill="url(#paint2_linear_250_1393)"/>
</g>
<g id="&#232;&#183;&#175;&#229;&#190;&#132;_2" filter="url(#filter4_i_250_1393)">
<path fill-rule="evenodd" clip-rule="evenodd" d="M53.5516 36.1968L66.3447 28.762C66.8579 28.4658 66.7895 27.9509 66.2027 27.6099L53.6936 20.3388C53.1068 19.9944 52.2206 19.9616 51.7125 20.2561L38.9177 27.6926C38.4044 27.9871 38.4746 28.5037 39.0614 28.8447L51.5688 36.1141C52.159 36.4551 53.0383 36.493 53.5516 36.1968Z" fill="url(#paint3_linear_250_1393)"/>
</g>
</g>
<g id="&#231;&#188;&#150;&#231;&#187;&#132; 5&#229;&#164;&#135;&#228;&#187;&#189; 3">
<g id="&#232;&#183;&#175;&#229;&#190;&#132;_3" filter="url(#filter5_d_250_1393)">
<path fill-rule="evenodd" clip-rule="evenodd" d="M22.0129 37.422C22.0019 37.1772 22.1363 36.9492 22.3551 36.8417L35.1482 29.4052C35.6614 29.1107 36.5442 29.1469 37.131 29.4879L49.6384 36.759C49.9959 36.9674 50.1157 37.2223 50.1157 37.4909C50.1157 37.5443 50.1157 42.2924 50.1157 42.3441C50.1258 42.5887 49.9917 42.8162 49.7735 42.9245L36.9787 50.3609C36.4655 50.6571 35.5844 50.6192 34.9976 50.2782L22.4885 43.0088C22.1293 42.7987 22.0112 42.5404 22.0112 42.2769C22.0044 42.2218 22.0112 37.5305 22.0129 37.422Z" fill="url(#paint4_linear_250_1393)"/>
</g>
<g id="&#232;&#183;&#175;&#229;&#190;&#132;_4" filter="url(#filter6_i_250_1393)">
<path fill-rule="evenodd" clip-rule="evenodd" d="M36.9788 45.3459L49.7719 37.9112C50.2851 37.615 50.2167 37.1001 49.6299 36.7591L37.1208 29.488C36.534 29.1435 35.6478 29.1108 35.1397 29.4053L22.3449 36.8417C21.8317 37.1362 21.9018 37.6529 22.4886 37.9939L34.996 45.2633C35.5862 45.6043 36.4656 45.6421 36.9788 45.3459Z" fill="url(#paint5_linear_250_1393)"/>
</g>
</g>
<g id="&#231;&#188;&#150;&#231;&#187;&#132; 5&#229;&#164;&#135;&#228;&#187;&#189; 5">
<g id="&#232;&#183;&#175;&#229;&#190;&#132;_5" filter="url(#filter7_d_250_1393)">
<path fill-rule="evenodd" clip-rule="evenodd" d="M54.6243 37.9604C54.6132 37.7156 54.7476 37.4875 54.9664 37.38L67.7595 29.9436C68.2727 29.6491 69.1555 29.6852 69.7423 30.0262L82.2497 37.2973C82.6072 37.5057 82.727 37.7606 82.727 38.0293C82.727 38.0827 82.727 42.8307 82.727 42.8824C82.7371 43.127 82.603 43.3546 82.3848 43.4628L69.59 50.8992C69.0768 51.1954 68.1958 51.1575 67.609 50.8166L55.0998 43.5472C54.7406 43.3371 54.6225 43.0787 54.6225 42.8152C54.6157 42.7601 54.6225 38.0689 54.6243 37.9604Z" fill="url(#paint6_linear_250_1393)"/>
</g>
<g id="&#232;&#183;&#175;&#229;&#190;&#132;_6" filter="url(#filter8_i_250_1393)">
<path fill-rule="evenodd" clip-rule="evenodd" d="M69.5901 45.8841L82.3832 38.4494C82.8965 38.1532 82.828 37.6383 82.2412 37.2973L69.7321 30.0262C69.1453 29.6817 68.2592 29.649 67.7511 29.9435L54.9562 37.3799C54.443 37.6744 54.5132 38.1911 55.0999 38.5321L67.6074 45.8015C68.1976 46.1425 69.0769 46.1804 69.5901 45.8841Z" fill="url(#paint7_linear_250_1393)"/>
</g>
</g>
<g id="&#231;&#188;&#150;&#231;&#187;&#132; 5">
<g id="&#232;&#183;&#175;&#229;&#190;&#132;_7" filter="url(#filter9_d_250_1393)">
<path fill-rule="evenodd" clip-rule="evenodd" d="M38.0515 47.1094C38.0405 46.8646 38.1749 46.6366 38.3937 46.529L51.1868 39.0926C51.7 38.7981 52.5827 38.8343 53.1695 39.1753L65.6769 46.4464C66.0345 46.6548 66.1542 46.9096 66.1542 47.1783C66.1542 47.2317 66.1542 51.9798 66.1542 52.0315C66.1644 52.276 66.0302 52.5036 65.8121 52.6118L53.0173 60.0483C52.504 60.3445 51.623 60.3066 51.0362 59.9656L38.5271 52.6962C38.1678 52.4861 38.0498 52.2278 38.0498 51.9643C38.0429 51.9092 38.0498 47.2179 38.0515 47.1094Z" fill="url(#paint8_linear_250_1393)"/>
</g>
<g id="&#232;&#183;&#175;&#229;&#190;&#132;_8" filter="url(#filter10_i_250_1393)">
<path fill-rule="evenodd" clip-rule="evenodd" d="M53.0169 55.0332L65.81 47.5985C66.3232 47.3023 66.2548 46.7873 65.668 46.4463L53.1589 39.1752C52.5721 38.8308 51.6859 38.7981 51.1778 39.0926L38.383 46.529C37.8698 46.8235 37.9399 47.3401 38.5267 47.6811L51.0341 54.9505C51.6243 55.2915 52.5037 55.3294 53.0169 55.0332Z" fill="url(#paint9_linear_250_1393)"/>
</g>
</g>
<g id="&#231;&#188;&#150;&#231;&#187;&#132; 5&#229;&#164;&#135;&#228;&#187;&#189; 6">
<g id="&#232;&#183;&#175;&#229;&#190;&#132;_9" filter="url(#filter11_f_250_1393)">
<path fill-rule="evenodd" clip-rule="evenodd" d="M54.3136 51.2612L79.8998 36.3918C80.9262 35.7993 80.7894 34.7695 79.6158 34.0875L54.5976 19.5453C53.424 18.8564 51.6516 18.7909 50.6354 19.3799L25.0458 34.2528C24.0193 34.8418 24.1596 35.8751 25.3332 36.5571L50.348 51.0959C51.5284 51.7778 53.2871 51.8536 54.3136 51.2612Z" fill="#0B3798" fill-opacity="0.105184"/>
</g>
<path id="&#232;&#183;&#175;&#229;&#190;&#132;_10" fill-rule="evenodd" clip-rule="evenodd" d="M24.3813 31.4361C24.3592 30.9465 24.6281 30.4904 25.0656 30.2754L50.6518 15.4025C51.6783 14.8135 53.4438 14.8858 54.6174 15.5678L79.6322 30.11C80.3473 30.5268 80.5868 31.0366 80.5868 31.5739C80.5868 31.6807 80.5868 32.776 80.5868 32.8793C80.6071 33.3685 80.3388 33.8237 79.9025 34.0401L54.3129 48.913C53.2864 49.5054 51.5243 49.4296 50.3507 48.7476L25.3325 34.2089C24.614 33.7886 24.3779 33.272 24.3779 32.745C24.3642 32.6348 24.3779 31.6531 24.3813 31.4361Z" fill="url(#paint10_linear_250_1393)"/>
<g id="&#232;&#183;&#175;&#229;&#190;&#132;_11" filter="url(#filter12_i_250_1393)">
<path fill-rule="evenodd" clip-rule="evenodd" d="M54.3136 46.9558L79.8998 32.0863C80.9262 31.4939 80.7894 30.464 79.6158 29.782L54.5976 15.2398C53.424 14.551 51.6516 14.4855 50.6354 15.0745L25.0458 29.9474C24.0193 30.5364 24.1596 31.5697 25.3332 32.2517L50.348 46.7904C51.5284 47.4724 53.2871 47.5482 54.3136 46.9558Z" fill="url(#paint11_linear_250_1393)"/>
</g>
</g>
<g id="&#231;&#188;&#150;&#231;&#187;&#132; 27">
<path id="&#229;&#189;&#162;&#231;&#138;&#182;&#231;&#187;&#147;&#229;&#144;&#136;" fill-rule="evenodd" clip-rule="evenodd" d="M64.3739 22.4821L55.004 16.9479C54.6806 16.7569 54.0872 16.7998 53.6786 17.0438C53.27 17.2878 53.201 17.6405 53.5244 17.8315L62.8943 23.3656C63.2178 23.5566 63.8112 23.5137 64.2197 23.2697C64.6283 23.0257 64.6973 22.6731 64.3739 22.4821ZM70.8131 26.606L76.6693 30.0648C76.9927 30.2558 76.9237 30.6085 76.5151 30.8525C76.1065 31.0965 75.5131 31.1394 75.1897 30.9484L69.3335 27.4895C69.0101 27.2985 69.0791 26.9459 69.4877 26.7019C69.8963 26.4579 70.4897 26.415 70.8131 26.606ZM55.8499 35.5446L61.7061 39.0034C62.0296 39.1944 61.9605 39.5471 61.552 39.7911C61.1434 40.0351 60.55 40.078 60.2265 39.887L54.3704 36.4281C54.0469 36.2371 54.116 35.8845 54.5245 35.6405C54.9331 35.3965 55.5265 35.3536 55.8499 35.5446ZM70.8469 33.456L67.0404 31.2078C66.717 31.0168 66.1236 31.0597 65.715 31.3037C65.3064 31.5477 65.2374 31.9003 65.5608 32.0913L69.3674 34.3396C69.6908 34.5306 70.2842 34.4877 70.6928 34.2437C71.1013 33.9997 71.1704 33.6471 70.8469 33.456ZM51.9825 40.4268L55.7891 42.6751C56.1125 42.8661 56.0435 43.2188 55.6349 43.4627C55.2263 43.7067 54.6329 43.7497 54.3095 43.5586L50.503 41.3104C50.1795 41.1194 50.2486 40.7667 50.6571 40.5227C51.0657 40.2788 51.6591 40.2358 51.9825 40.4268ZM58.6842 40.975L57.5129 40.2832C57.1895 40.0922 56.5961 40.1351 56.1875 40.3791C55.779 40.6231 55.7099 40.9758 56.0334 41.1668L57.2046 41.8585C57.528 42.0496 58.1214 42.0066 58.53 41.7627C58.9386 41.5187 59.0076 41.166 58.6842 40.975ZM51.2882 43.7522L52.4595 44.444C52.7829 44.635 52.7139 44.9876 52.3053 45.2316C51.8967 45.4756 51.3033 45.5186 50.9799 45.3275L49.8087 44.6358C49.4852 44.4447 49.5543 44.0921 49.9628 43.8481C50.3714 43.6041 50.9648 43.5612 51.2882 43.7522ZM56.7931 28.883L57.9643 29.5747C58.2877 29.7657 58.2187 30.1184 57.8101 30.3624C57.4016 30.6064 56.8082 30.6493 56.4847 30.4583L55.3135 29.7665C54.9901 29.5755 55.0591 29.2228 55.4677 28.9788C55.8762 28.7349 56.4696 28.6919 56.7931 28.883Z" fill="#7CFF8D"/>
<path id="&#231;&#159;&#169;&#229;&#189;&#162;&#229;&#164;&#135;&#228;&#187;&#189; 26" fill-rule="evenodd" clip-rule="evenodd" d="M67.8846 35.4958L66.7134 34.804C66.3899 34.613 65.7965 34.6559 65.388 34.8999C64.9794 35.1439 64.9104 35.4965 65.2338 35.6876L66.405 36.3793C66.7285 36.5704 67.3219 36.5274 67.7304 36.2834C68.139 36.0395 68.208 35.6868 67.8846 35.4958Z" fill="#D3FAFF"/>
<path id="&#231;&#159;&#169;&#229;&#189;&#162;&#229;&#164;&#135;&#228;&#187;&#189; 15" fill-rule="evenodd" clip-rule="evenodd" d="M71.5164 30.2902L68.0027 28.2149C67.6793 28.0239 67.0859 28.0668 66.6773 28.3108C66.2687 28.5548 66.1997 28.9074 66.5231 29.0985L70.0369 31.1738C70.3603 31.3648 70.9537 31.3218 71.3623 31.0779C71.7708 30.8339 71.8399 30.4812 71.5164 30.2902Z" fill="white"/>
<path id="&#231;&#159;&#169;&#229;&#189;&#162;&#229;&#164;&#135;&#228;&#187;&#189; 31" fill-rule="evenodd" clip-rule="evenodd" d="M62.3153 35.7693L58.8016 33.694C58.4781 33.503 57.8847 33.5459 57.4761 33.7899C57.0676 34.0339 56.9985 34.3866 57.322 34.5776L60.8357 36.6529C61.1591 36.8439 61.7525 36.801 62.1611 36.557C62.5697 36.313 62.6387 35.9604 62.3153 35.7693Z" fill="white"/>
<path id="&#229;&#189;&#162;&#231;&#138;&#182;&#231;&#187;&#147;&#229;&#144;&#136;_2" fill-rule="evenodd" clip-rule="evenodd" d="M68.9363 25.1627L66.8866 23.9521C66.5632 23.7611 65.9698 23.804 65.5612 24.048C65.1526 24.292 65.0836 24.6446 65.407 24.8356L67.4567 26.0462C67.7801 26.2373 68.3735 26.1943 68.7821 25.9503C69.1907 25.7063 69.2597 25.3537 68.9363 25.1627ZM53.878 34.3817L51.8283 33.1711C51.5049 32.9801 50.9115 33.023 50.5029 33.267C50.0943 33.511 50.0253 33.8637 50.3488 34.0547L52.3984 35.2653C52.7218 35.4563 53.3153 35.4134 53.7238 35.1694C54.1324 34.9254 54.2014 34.5728 53.878 34.3817ZM62.8639 29.0463L64.9136 30.2569C65.237 30.4479 65.168 30.8006 64.7594 31.0446C64.3509 31.2886 63.7574 31.3315 63.434 31.1405L61.3844 29.9299C61.0609 29.7389 61.1299 29.3862 61.5385 29.1422C61.9471 28.8982 62.5405 28.8553 62.8639 29.0463ZM49.4884 39.2052L47.4387 37.9946C47.1153 37.8036 46.5219 37.8465 46.1133 38.0905C45.7047 38.3345 45.6357 38.6871 45.9591 38.8782L48.0088 40.0888C48.3322 40.2798 48.9256 40.2368 49.3342 39.9929C49.7428 39.7489 49.8118 39.3962 49.4884 39.2052ZM59.9964 30.8058L64.6813 33.5729C65.0048 33.7639 64.9357 34.1166 64.5272 34.3606C64.1186 34.6045 63.5252 34.6475 63.2018 34.4565L58.5168 31.6894C58.1934 31.4984 58.2624 31.1457 58.671 30.9017C59.0795 30.6577 59.673 30.6148 59.9964 30.8058ZM55.4808 39.052L50.7959 36.2849C50.4724 36.0939 49.879 36.1368 49.4705 36.3808C49.0619 36.6248 48.9929 36.9775 49.3163 37.1685L54.0012 39.9355C54.3247 40.1266 54.9181 40.0836 55.3266 39.8397C55.7352 39.5957 55.8042 39.243 55.4808 39.052ZM44.5712 39.754L49.2561 42.5211C49.5795 42.7121 49.5105 43.0648 49.1019 43.3087C48.6934 43.5527 48.1 43.5957 47.7765 43.4046L43.0916 40.6376C42.7682 40.4465 42.8372 40.0939 43.2458 39.8499C43.6543 39.6059 44.2477 39.563 44.5712 39.754ZM73.9012 31.7626L73.6084 31.5896C73.285 31.3986 72.6916 31.4415 72.283 31.6855C71.8744 31.9295 71.8054 32.2822 72.1288 32.4732L72.4216 32.6461C72.7451 32.8372 73.3385 32.7942 73.747 32.5502C74.1556 32.3063 74.2246 31.9536 73.9012 31.7626ZM64.4075 37.0687L64.7003 37.2417C65.0237 37.4327 64.9547 37.7853 64.5461 38.0293C64.1375 38.2733 63.5441 38.3162 63.2207 38.1252L62.9279 37.9523C62.6045 37.7613 62.6735 37.4086 63.0821 37.1646C63.4906 36.9206 64.084 36.8777 64.4075 37.0687ZM33.1193 33.0387L30.484 31.4823C30.1606 31.2912 29.5672 31.3342 29.1586 31.5781C28.75 31.8221 28.681 32.1748 29.0044 32.3658L31.6397 33.9223C31.9631 34.1133 32.5565 34.0704 32.9651 33.8264C33.3737 33.5824 33.4427 33.2298 33.1193 33.0387ZM42.7924 24.2094L56.5544 32.3376C56.8779 32.5286 56.8088 32.8813 56.4003 33.1253C55.9917 33.3693 55.3983 33.4122 55.0748 33.2212L41.3128 25.0929C40.9894 24.9019 41.0584 24.5493 41.467 24.3053C41.8756 24.0613 42.469 24.0183 42.7924 24.2094Z" fill="#FF6BCA"/>
<path id="&#231;&#159;&#169;&#229;&#189;&#162;&#229;&#164;&#135;&#228;&#187;&#189; 36" fill-rule="evenodd" clip-rule="evenodd" d="M49.3162 31.7012L39.9464 26.167C39.6229 25.976 39.0295 26.019 38.6209 26.2629C38.2124 26.5069 38.1433 26.8596 38.4668 27.0506L47.8367 32.5847C48.1601 32.7758 48.7535 32.7328 49.1621 32.4888C49.5707 32.2449 49.6397 31.8922 49.3162 31.7012Z" fill="white"/>
<path id="&#231;&#159;&#169;&#229;&#189;&#162;&#229;&#164;&#135;&#228;&#187;&#189; 25" fill-rule="evenodd" clip-rule="evenodd" d="M60.7039 27.8175L48.6988 20.7269C48.3753 20.5358 47.7819 20.5788 47.3734 20.8228C46.9648 21.0667 46.8958 21.4194 47.2192 21.6104L59.2244 28.701C59.5478 28.8921 60.1412 28.8491 60.5498 28.6051C60.9583 28.3611 61.0274 28.0085 60.7039 27.8175Z" fill="white"/>
<path id="&#231;&#159;&#169;&#229;&#189;&#162;&#229;&#164;&#135;&#228;&#187;&#189; 44" fill-rule="evenodd" clip-rule="evenodd" d="M45.7411 36.7563L33.7359 29.6657C33.4124 29.4747 32.819 29.5176 32.4105 29.7616C32.0019 30.0056 31.9329 30.3582 32.2563 30.5493L44.2615 37.6399C44.5849 37.8309 45.1783 37.788 45.5869 37.544C45.9955 37.3 46.0645 36.9473 45.7411 36.7563Z" fill="white"/>
<path id="&#231;&#159;&#169;&#229;&#189;&#162;&#229;&#164;&#135;&#228;&#187;&#189; 39" fill-rule="evenodd" clip-rule="evenodd" d="M48.7635 35.0538L47.5923 34.362C47.2688 34.171 46.6754 34.2139 46.2669 34.4579C45.8583 34.7019 45.7893 35.0545 46.1127 35.2456L47.2839 35.9373C47.6074 36.1283 48.2008 36.0854 48.6093 35.8414C49.0179 35.5974 49.0869 35.2448 48.7635 35.0538Z" fill="white"/>
<path id="&#231;&#159;&#169;&#229;&#189;&#162;&#229;&#164;&#135;&#228;&#187;&#189; 47" fill-rule="evenodd" clip-rule="evenodd" d="M42.5389 38.5228L41.3677 37.831C41.0442 37.64 40.4508 37.6829 40.0423 37.9269C39.6337 38.1709 39.5647 38.5235 39.8881 38.7145L41.0593 39.4063C41.3828 39.5973 41.9762 39.5544 42.3847 39.3104C42.7933 39.0664 42.8623 38.7138 42.5389 38.5228Z" fill="white"/>
<path id="&#231;&#159;&#169;&#229;&#189;&#162;&#229;&#164;&#135;&#228;&#187;&#189; 29" fill-rule="evenodd" clip-rule="evenodd" d="M54.3729 27.759L50.2736 25.3378C49.9501 25.1468 49.3567 25.1897 48.9481 25.4337C48.5396 25.6777 48.4705 26.0304 48.794 26.2214L52.8933 28.6426C53.2167 28.8336 53.8101 28.7907 54.2187 28.5467C54.6273 28.3027 54.6963 27.95 54.3729 27.759Z" fill="white"/>
<path id="&#231;&#159;&#169;&#229;&#189;&#162;&#229;&#164;&#135;&#228;&#187;&#189; 40" fill-rule="evenodd" clip-rule="evenodd" d="M45.6341 33.2289L41.5348 30.8077C41.2114 30.6166 40.618 30.6596 40.2094 30.9036C39.8008 31.1476 39.7318 31.5002 40.0552 31.6912L44.1545 34.1124C44.478 34.3034 45.0714 34.2605 45.4799 34.0165C45.8885 33.7725 45.9575 33.4199 45.6341 33.2289Z" fill="white"/>
<path id="&#231;&#159;&#169;&#229;&#189;&#162;&#229;&#164;&#135;&#228;&#187;&#189; 48" fill-rule="evenodd" clip-rule="evenodd" d="M39.4095 36.6979L35.3102 34.2767C34.9868 34.0856 34.3933 34.1286 33.9848 34.3726C33.5762 34.6166 33.5072 34.9692 33.8306 35.1602L37.9299 37.5814C38.2534 37.7724 38.8468 37.7295 39.2553 37.4855C39.6639 37.2415 39.7329 36.8889 39.4095 36.6979Z" fill="white"/>
<path id="&#231;&#159;&#169;&#229;&#189;&#162;&#229;&#164;&#135;&#228;&#187;&#189; 30" fill-rule="evenodd" clip-rule="evenodd" d="M48.5448 24.0906L45.9095 22.5341C45.5861 22.3431 44.9926 22.386 44.5841 22.63C44.1755 22.874 44.1065 23.2266 44.4299 23.4177L47.0652 24.9741C47.3886 25.1652 47.982 25.1222 48.3906 24.8783C48.7992 24.6343 48.8682 24.2816 48.5448 24.0906Z" fill="white"/>
<path id="&#231;&#159;&#169;&#229;&#189;&#162;&#229;&#164;&#135;&#228;&#187;&#189; 41" fill-rule="evenodd" clip-rule="evenodd" d="M39.3436 29.5697L36.7083 28.0132C36.3849 27.8222 35.7915 27.8651 35.3829 28.1091C34.9743 28.3531 34.9053 28.7058 35.2287 28.8968L37.864 30.4533C38.1874 30.6443 38.7808 30.6014 39.1894 30.3574C39.598 30.1134 39.667 29.7607 39.3436 29.5697Z" fill="white"/>
<path id="&#231;&#159;&#169;&#229;&#189;&#162;&#229;&#164;&#135;&#228;&#187;&#189; 22" fill-rule="evenodd" clip-rule="evenodd" d="M65.7547 26.8584L51.9927 18.7302C51.6693 18.5391 51.0759 18.5821 50.6673 18.8261C50.2587 19.07 50.1897 19.4227 50.5131 19.6137L64.2751 27.742C64.5986 27.933 65.192 27.8901 65.6006 27.6461C66.0091 27.4021 66.0782 27.0494 65.7547 26.8584Z" fill="white"/>
</g>
<g id="&#231;&#188;&#150;&#231;&#187;&#132; 5&#229;&#164;&#135;&#228;&#187;&#189; 7">
<g id="&#231;&#188;&#150;&#231;&#187;&#132; 46">
<g id="&#232;&#183;&#175;&#229;&#190;&#132;_12" filter="url(#filter13_b_250_1393)">
<path fill-rule="evenodd" clip-rule="evenodd" d="M54.3136 41.9647L79.8998 27.0953C80.9262 26.5028 80.7894 25.4729 79.6158 24.791L54.5976 10.2488C53.424 9.55988 51.6516 9.49443 50.6354 10.0834L25.0458 24.9563C24.0193 25.5453 24.1596 26.5786 25.3332 27.2606L50.348 41.7994C51.5284 42.4813 53.2871 42.5571 54.3136 41.9647Z" fill="url(#paint12_linear_250_1393)"/>
<path fill-rule="evenodd" clip-rule="evenodd" d="M54.3136 41.9647L79.8998 27.0953C80.9262 26.5028 80.7894 25.4729 79.6158 24.791L54.5976 10.2488C53.424 9.55988 51.6516 9.49443 50.6354 10.0834L25.0458 24.9563C24.0193 25.5453 24.1596 26.5786 25.3332 27.2606L50.348 41.7994C51.5284 42.4813 53.2871 42.5571 54.3136 41.9647Z" stroke="url(#paint13_linear_250_1393)" stroke-width="1.69828"/>
</g>
<g id="&#232;&#183;&#175;&#229;&#190;&#132;_13" filter="url(#filter14_b_250_1393)">
<path fill-rule="evenodd" clip-rule="evenodd" d="M54.3136 37.8786L79.8998 23.0092C80.9262 22.4168 80.7894 21.3869 79.6158 20.7049L54.5976 6.16269C53.424 5.47382 51.6516 5.40837 50.6354 5.99736L25.0458 20.8702C24.0193 21.4592 24.1596 22.4925 25.3332 23.1745L50.348 37.7133C51.5284 38.3953 53.2871 38.4711 54.3136 37.8786Z" fill="url(#paint14_linear_250_1393)"/>
<path fill-rule="evenodd" clip-rule="evenodd" d="M54.3136 37.8786L79.8998 23.0092C80.9262 22.4168 80.7894 21.3869 79.6158 20.7049L54.5976 6.16269C53.424 5.47382 51.6516 5.40837 50.6354 5.99736L25.0458 20.8702C24.0193 21.4592 24.1596 22.4925 25.3332 23.1745L50.348 37.7133C51.5284 38.3953 53.2871 38.4711 54.3136 37.8786Z" stroke="url(#paint15_linear_250_1393)" stroke-width="1.69828"/>
</g>
<g id="&#232;&#183;&#175;&#229;&#190;&#132;_14" filter="url(#filter15_b_250_1393)">
<path fill-rule="evenodd" clip-rule="evenodd" d="M54.3136 33.2817L79.8998 18.4123C80.9262 17.8198 80.7894 16.79 79.6158 16.108L54.5976 1.56577C53.424 0.876892 51.6516 0.811449 50.6354 1.40044L25.0458 16.2733C24.0193 16.8623 24.1596 17.8956 25.3332 18.5776L50.348 33.1164C51.5284 33.7984 53.2871 33.8741 54.3136 33.2817Z" fill="url(#paint16_linear_250_1393)"/>
<path fill-rule="evenodd" clip-rule="evenodd" d="M54.3136 33.2817L79.8998 18.4123C80.9262 17.8198 80.7894 16.79 79.6158 16.108L54.5976 1.56577C53.424 0.876892 51.6516 0.811449 50.6354 1.40044L25.0458 16.2733C24.0193 16.8623 24.1596 17.8956 25.3332 18.5776L50.348 33.1164C51.5284 33.7984 53.2871 33.8741 54.3136 33.2817Z" stroke="url(#paint17_linear_250_1393)" stroke-width="1.69828"/>
</g>
</g>
</g>
</g>
</g>
</g>
</g>
<defs>
<filter id="filter0_d_250_1393" x="0" y="29.2789" width="105.574" height="51.7211" filterUnits="userSpaceOnUse" color-interpolation-filters="sRGB">
<feFlood flood-opacity="0" result="BackgroundImageFix"/>
<feColorMatrix in="SourceAlpha" type="matrix" values="0 0 0 0 0 0 0 0 0 0 0 0 0 0 0 0 0 0 127 0" result="hardAlpha"/>
<feOffset dy="1"/>
<feColorMatrix type="matrix" values="0 0 0 0 0.469187 0 0 0 0 0.503882 0 0 0 0 0.580577 0 0 0 0.251899 0"/>
<feBlend mode="normal" in2="BackgroundImageFix" result="effect1_dropShadow_250_1393"/>
<feBlend mode="normal" in="SourceGraphic" in2="effect1_dropShadow_250_1393" result="shape"/>
</filter>
<filter id="filter1_i_250_1393" x="0" y="18" width="105.574" height="53.4641" filterUnits="userSpaceOnUse" color-interpolation-filters="sRGB">
<feFlood flood-opacity="0" result="BackgroundImageFix"/>
<feBlend mode="normal" in="SourceGraphic" in2="BackgroundImageFix" result="shape"/>
<feColorMatrix in="SourceAlpha" type="matrix" values="0 0 0 0 0 0 0 0 0 0 0 0 0 0 0 0 0 0 127 0" result="hardAlpha"/>
<feOffset dy="-1"/>
<feComposite in2="hardAlpha" operator="arithmetic" k2="-1" k3="1"/>
<feColorMatrix type="matrix" values="0 0 0 0 1 0 0 0 0 1 0 0 0 0 1 0 0 0 0.625209 0"/>
<feBlend mode="normal" in2="shape" result="effect1_innerShadow_250_1393"/>
</filter>
<filter id="filter2_f_250_1393" x="-22.1201" y="-4.91555" width="151.632" height="118.505" filterUnits="userSpaceOnUse" color-interpolation-filters="sRGB">
<feFlood flood-opacity="0" result="BackgroundImageFix"/>
<feBlend mode="normal" in="SourceGraphic" in2="BackgroundImageFix" result="shape"/>
<feGaussianBlur stdDeviation="24.2361" result="effect1_foregroundBlur_250_1393"/>
</filter>
<filter id="filter3_d_250_1393" x="38.5815" y="20.057" width="28.1079" height="22.3545" filterUnits="userSpaceOnUse" color-interpolation-filters="sRGB">
<feFlood flood-opacity="0" result="BackgroundImageFix"/>
<feColorMatrix in="SourceAlpha" type="matrix" values="0 0 0 0 0 0 0 0 0 0 0 0 0 0 0 0 0 0 127 0" result="hardAlpha"/>
<feOffset dy="1"/>
<feColorMatrix type="matrix" values="0 0 0 0 0 0 0 0 0 0.283296 0 0 0 0 0.909528 0 0 0 0.226832 0"/>
<feBlend mode="normal" in2="BackgroundImageFix" result="effect1_dropShadow_250_1393"/>
<feBlend mode="normal" in="SourceGraphic" in2="effect1_dropShadow_250_1393" result="shape"/>
</filter>
<filter id="filter4_i_250_1393" x="38.5732" y="20.0559" width="28.1167" height="16.3406" filterUnits="userSpaceOnUse" color-interpolation-filters="sRGB">
<feFlood flood-opacity="0" result="BackgroundImageFix"/>
<feBlend mode="normal" in="SourceGraphic" in2="BackgroundImageFix" result="shape"/>
<feColorMatrix in="SourceAlpha" type="matrix" values="0 0 0 0 0 0 0 0 0 0 0 0 0 0 0 0 0 0 127 0" result="hardAlpha"/>
<feOffset dy="-1"/>
<feComposite in2="hardAlpha" operator="arithmetic" k2="-1" k3="1"/>
<feColorMatrix type="matrix" values="0 0 0 0 1 0 0 0 0 1 0 0 0 0 1 0 0 0 0.625209 0"/>
<feBlend mode="normal" in2="shape" result="effect1_innerShadow_250_1393"/>
</filter>
<filter id="filter5_d_250_1393" x="22.0083" y="29.2062" width="28.1079" height="22.3545" filterUnits="userSpaceOnUse" color-interpolation-filters="sRGB">
<feFlood flood-opacity="0" result="BackgroundImageFix"/>
<feColorMatrix in="SourceAlpha" type="matrix" values="0 0 0 0 0 0 0 0 0 0 0 0 0 0 0 0 0 0 127 0" result="hardAlpha"/>
<feOffset dy="1"/>
<feColorMatrix type="matrix" values="0 0 0 0 0 0 0 0 0 0.283296 0 0 0 0 0.909528 0 0 0 0.226832 0"/>
<feBlend mode="normal" in2="BackgroundImageFix" result="effect1_dropShadow_250_1393"/>
<feBlend mode="normal" in="SourceGraphic" in2="effect1_dropShadow_250_1393" result="shape"/>
</filter>
<filter id="filter6_i_250_1393" x="22.0005" y="29.2051" width="28.1167" height="16.3406" filterUnits="userSpaceOnUse" color-interpolation-filters="sRGB">
<feFlood flood-opacity="0" result="BackgroundImageFix"/>
<feBlend mode="normal" in="SourceGraphic" in2="BackgroundImageFix" result="shape"/>
<feColorMatrix in="SourceAlpha" type="matrix" values="0 0 0 0 0 0 0 0 0 0 0 0 0 0 0 0 0 0 127 0" result="hardAlpha"/>
<feOffset dy="-1"/>
<feComposite in2="hardAlpha" operator="arithmetic" k2="-1" k3="1"/>
<feColorMatrix type="matrix" values="0 0 0 0 1 0 0 0 0 1 0 0 0 0 1 0 0 0 0.625209 0"/>
<feBlend mode="normal" in2="shape" result="effect1_innerShadow_250_1393"/>
</filter>
<filter id="filter7_d_250_1393" x="54.6196" y="29.7445" width="28.1079" height="22.3545" filterUnits="userSpaceOnUse" color-interpolation-filters="sRGB">
<feFlood flood-opacity="0" result="BackgroundImageFix"/>
<feColorMatrix in="SourceAlpha" type="matrix" values="0 0 0 0 0 0 0 0 0 0 0 0 0 0 0 0 0 0 127 0" result="hardAlpha"/>
<feOffset dy="1"/>
<feColorMatrix type="matrix" values="0 0 0 0 0 0 0 0 0 0.283296 0 0 0 0 0.909528 0 0 0 0.226832 0"/>
<feBlend mode="normal" in2="BackgroundImageFix" result="effect1_dropShadow_250_1393"/>
<feBlend mode="normal" in="SourceGraphic" in2="effect1_dropShadow_250_1393" result="shape"/>
</filter>
<filter id="filter8_i_250_1393" x="54.6118" y="29.7433" width="28.1167" height="16.3406" filterUnits="userSpaceOnUse" color-interpolation-filters="sRGB">
<feFlood flood-opacity="0" result="BackgroundImageFix"/>
<feBlend mode="normal" in="SourceGraphic" in2="BackgroundImageFix" result="shape"/>
<feColorMatrix in="SourceAlpha" type="matrix" values="0 0 0 0 0 0 0 0 0 0 0 0 0 0 0 0 0 0 127 0" result="hardAlpha"/>
<feOffset dy="-1"/>
<feComposite in2="hardAlpha" operator="arithmetic" k2="-1" k3="1"/>
<feColorMatrix type="matrix" values="0 0 0 0 1 0 0 0 0 1 0 0 0 0 1 0 0 0 0.625209 0"/>
<feBlend mode="normal" in2="shape" result="effect1_innerShadow_250_1393"/>
</filter>
<filter id="filter9_d_250_1393" x="38.0469" y="38.8936" width="28.1079" height="22.3545" filterUnits="userSpaceOnUse" color-interpolation-filters="sRGB">
<feFlood flood-opacity="0" result="BackgroundImageFix"/>
<feColorMatrix in="SourceAlpha" type="matrix" values="0 0 0 0 0 0 0 0 0 0 0 0 0 0 0 0 0 0 127 0" result="hardAlpha"/>
<feOffset dy="1"/>
<feColorMatrix type="matrix" values="0 0 0 0 0 0 0 0 0 0.283296 0 0 0 0 0.909528 0 0 0 0.226832 0"/>
<feBlend mode="normal" in2="BackgroundImageFix" result="effect1_dropShadow_250_1393"/>
<feBlend mode="normal" in="SourceGraphic" in2="effect1_dropShadow_250_1393" result="shape"/>
</filter>
<filter id="filter10_i_250_1393" x="38.0386" y="38.8923" width="28.1167" height="16.3406" filterUnits="userSpaceOnUse" color-interpolation-filters="sRGB">
<feFlood flood-opacity="0" result="BackgroundImageFix"/>
<feBlend mode="normal" in="SourceGraphic" in2="BackgroundImageFix" result="shape"/>
<feColorMatrix in="SourceAlpha" type="matrix" values="0 0 0 0 0 0 0 0 0 0 0 0 0 0 0 0 0 0 127 0" result="hardAlpha"/>
<feOffset dy="-1"/>
<feComposite in2="hardAlpha" operator="arithmetic" k2="-1" k3="1"/>
<feColorMatrix type="matrix" values="0 0 0 0 1 0 0 0 0 1 0 0 0 0 1 0 0 0 0.625209 0"/>
<feBlend mode="normal" in2="shape" result="effect1_innerShadow_250_1393"/>
</filter>
<filter id="filter11_f_250_1393" x="18.3136" y="12.9362" width="68.32" height="44.7677" filterUnits="userSpaceOnUse" color-interpolation-filters="sRGB">
<feFlood flood-opacity="0" result="BackgroundImageFix"/>
<feBlend mode="normal" in="SourceGraphic" in2="BackgroundImageFix" result="shape"/>
<feGaussianBlur stdDeviation="3.02164" result="effect1_foregroundBlur_250_1393"/>
</filter>
<filter id="filter12_i_250_1393" x="24.3569" y="14.6741" width="56.2334" height="32.6812" filterUnits="userSpaceOnUse" color-interpolation-filters="sRGB">
<feFlood flood-opacity="0" result="BackgroundImageFix"/>
<feBlend mode="normal" in="SourceGraphic" in2="BackgroundImageFix" result="shape"/>
<feColorMatrix in="SourceAlpha" type="matrix" values="0 0 0 0 0 0 0 0 0 0 0 0 0 0 0 0 0 0 127 0" result="hardAlpha"/>
<feOffset dy="-1"/>
<feComposite in2="hardAlpha" operator="arithmetic" k2="-1" k3="1"/>
<feColorMatrix type="matrix" values="0 0 0 0 1 0 0 0 0 1 0 0 0 0 1 0 0 0 0.630952 0"/>
<feBlend mode="normal" in2="shape" result="effect1_innerShadow_250_1393"/>
</filter>
<filter id="filter13_b_250_1393" x="-8.80796" y="-23.4809" width="122.563" height="99.009" filterUnits="userSpaceOnUse" color-interpolation-filters="sRGB">
<feFlood flood-opacity="0" result="BackgroundImageFix"/>
<feGaussianBlur in="BackgroundImageFix" stdDeviation="16.1574"/>
<feComposite in2="SourceAlpha" operator="in" result="effect1_backgroundBlur_250_1393"/>
<feBlend mode="normal" in="SourceGraphic" in2="effect1_backgroundBlur_250_1393" result="shape"/>
</filter>
<filter id="filter14_b_250_1393" x="-8.80796" y="-27.567" width="122.563" height="99.009" filterUnits="userSpaceOnUse" color-interpolation-filters="sRGB">
<feFlood flood-opacity="0" result="BackgroundImageFix"/>
<feGaussianBlur in="BackgroundImageFix" stdDeviation="16.1574"/>
<feComposite in2="SourceAlpha" operator="in" result="effect1_backgroundBlur_250_1393"/>
<feBlend mode="normal" in="SourceGraphic" in2="effect1_backgroundBlur_250_1393" result="shape"/>
</filter>
<filter id="filter15_b_250_1393" x="-8.80796" y="-32.1639" width="122.563" height="99.009" filterUnits="userSpaceOnUse" color-interpolation-filters="sRGB">
<feFlood flood-opacity="0" result="BackgroundImageFix"/>
<feGaussianBlur in="BackgroundImageFix" stdDeviation="16.1574"/>
<feComposite in2="SourceAlpha" operator="in" result="effect1_backgroundBlur_250_1393"/>
<feBlend mode="normal" in="SourceGraphic" in2="effect1_backgroundBlur_250_1393" result="shape"/>
</filter>
<linearGradient id="paint0_linear_250_1393" x1="105.574" y1="25.2194" x2="-16.8996" y2="25.2194" gradientUnits="userSpaceOnUse">
<stop stop-color="#556595"/>
<stop offset="0.0736969" stop-color="#8B9FC4"/>
<stop offset="0.333088" stop-color="#BDCFEB"/>
<stop offset="0.423879" stop-color="#D2E0F7"/>
<stop offset="0.43148" stop-color="#A3B6DC"/>
<stop offset="0.688164" stop-color="#D2E0F7"/>
<stop offset="0.933231" stop-color="#CFDEF5"/>
<stop offset="1" stop-color="#9FB0D2"/>
</linearGradient>
<linearGradient id="paint1_linear_250_1393" x1="3.75338" y1="67.9662" x2="94.7258" y2="77.794" gradientUnits="userSpaceOnUse">
<stop stop-color="#B6CDF2"/>
<stop offset="1" stop-color="#9AB0E5"/>
</linearGradient>
<linearGradient id="paint2_linear_250_1393" x1="38.5815" y1="20.057" x2="66.6895" y2="20.057" gradientUnits="userSpaceOnUse">
<stop stop-color="#556595"/>
<stop offset="0.0736969" stop-color="#8B9FC4"/>
<stop offset="0.402837" stop-color="#BDCFEB"/>
<stop offset="0.468294" stop-color="#D2E0F7"/>
<stop offset="0.519413" stop-color="#A3B6DC"/>
<stop offset="0.688164" stop-color="#D2E0F7"/>
<stop offset="0.933231" stop-color="#CFDEF5"/>
<stop offset="1" stop-color="#9FB0D2"/>
</linearGradient>
<linearGradient id="paint3_linear_250_1393" x1="65.6903" y1="35.3274" x2="41.3948" y2="37.6145" gradientUnits="userSpaceOnUse">
<stop stop-color="#B6CDF2"/>
<stop offset="1" stop-color="#9AB0E5"/>
</linearGradient>
<linearGradient id="paint4_linear_250_1393" x1="22.0082" y1="29.2062" x2="50.1162" y2="29.2062" gradientUnits="userSpaceOnUse">
<stop stop-color="#556595"/>
<stop offset="0.0736969" stop-color="#8B9FC4"/>
<stop offset="0.402837" stop-color="#BDCFEB"/>
<stop offset="0.468294" stop-color="#D2E0F7"/>
<stop offset="0.519413" stop-color="#A3B6DC"/>
<stop offset="0.688164" stop-color="#D2E0F7"/>
<stop offset="0.933231" stop-color="#CFDEF5"/>
<stop offset="1" stop-color="#9FB0D2"/>
</linearGradient>
<linearGradient id="paint5_linear_250_1393" x1="49.1176" y1="44.4766" x2="24.8221" y2="46.7636" gradientUnits="userSpaceOnUse">
<stop stop-color="#B6CDF2"/>
<stop offset="1" stop-color="#9AB0E5"/>
</linearGradient>
<linearGradient id="paint6_linear_250_1393" x1="54.6196" y1="29.7445" x2="82.7275" y2="29.7445" gradientUnits="userSpaceOnUse">
<stop stop-color="#556595"/>
<stop offset="0.0736969" stop-color="#8B9FC4"/>
<stop offset="0.402837" stop-color="#BDCFEB"/>
<stop offset="0.468294" stop-color="#D2E0F7"/>
<stop offset="0.519413" stop-color="#A3B6DC"/>
<stop offset="0.688164" stop-color="#D2E0F7"/>
<stop offset="0.933231" stop-color="#CFDEF5"/>
<stop offset="1" stop-color="#9FB0D2"/>
</linearGradient>
<linearGradient id="paint7_linear_250_1393" x1="81.7289" y1="45.0148" x2="57.4334" y2="47.3018" gradientUnits="userSpaceOnUse">
<stop stop-color="#B6CDF2"/>
<stop offset="1" stop-color="#9AB0E5"/>
</linearGradient>
<linearGradient id="paint8_linear_250_1393" x1="38.0468" y1="38.8936" x2="66.1548" y2="38.8936" gradientUnits="userSpaceOnUse">
<stop stop-color="#556595"/>
<stop offset="0.0736969" stop-color="#8B9FC4"/>
<stop offset="0.402837" stop-color="#BDCFEB"/>
<stop offset="0.468294" stop-color="#D2E0F7"/>
<stop offset="0.519413" stop-color="#A3B6DC"/>
<stop offset="0.688164" stop-color="#D2E0F7"/>
<stop offset="0.933231" stop-color="#CFDEF5"/>
<stop offset="1" stop-color="#9FB0D2"/>
</linearGradient>
<linearGradient id="paint9_linear_250_1393" x1="65.1557" y1="54.1638" x2="40.8602" y2="56.4509" gradientUnits="userSpaceOnUse">
<stop stop-color="#B6CDF2"/>
<stop offset="1" stop-color="#9AB0E5"/>
</linearGradient>
<linearGradient id="paint10_linear_250_1393" x1="24.3719" y1="15.0044" x2="80.5879" y2="15.0044" gradientUnits="userSpaceOnUse">
<stop stop-color="#0087FB"/>
<stop offset="0.469399" stop-color="#B8DCFF"/>
<stop offset="0.523294" stop-color="#3392F6"/>
<stop offset="1" stop-color="#0676F4"/>
</linearGradient>
<linearGradient id="paint11_linear_250_1393" x1="83.5172" y1="29.3775" x2="72.2771" y2="55.0321" gradientUnits="userSpaceOnUse">
<stop stop-color="#0B45D2"/>
<stop offset="1" stop-color="#4878FF"/>
</linearGradient>
<linearGradient id="paint12_linear_250_1393" x1="73.9033" y1="12.1172" x2="75.1487" y2="41.3998" gradientUnits="userSpaceOnUse">
<stop stop-color="#B3D2FF" stop-opacity="0.165565"/>
<stop offset="1" stop-color="#87C5FF" stop-opacity="0.163217"/>
</linearGradient>
<linearGradient id="paint13_linear_250_1393" x1="90.6686" y1="32.6928" x2="62.6814" y2="57.342" gradientUnits="userSpaceOnUse">
<stop stop-color="#2276FF" stop-opacity="0.639727"/>
<stop offset="1" stop-color="white"/>
</linearGradient>
<linearGradient id="paint14_linear_250_1393" x1="73.9033" y1="8.0311" x2="75.1487" y2="37.3137" gradientUnits="userSpaceOnUse">
<stop stop-color="#B3D2FF" stop-opacity="0.165565"/>
<stop offset="1" stop-color="#87C5FF" stop-opacity="0.163217"/>
</linearGradient>
<linearGradient id="paint15_linear_250_1393" x1="90.6686" y1="28.6067" x2="62.6814" y2="53.256" gradientUnits="userSpaceOnUse">
<stop stop-color="#2276FF" stop-opacity="0.639727"/>
<stop offset="1" stop-color="white"/>
</linearGradient>
<linearGradient id="paint16_linear_250_1393" x1="73.9033" y1="3.43418" x2="75.1487" y2="32.7168" gradientUnits="userSpaceOnUse">
<stop stop-color="#B3D2FF" stop-opacity="0.165565"/>
<stop offset="1" stop-color="#87C5FF" stop-opacity="0.163217"/>
</linearGradient>
<linearGradient id="paint17_linear_250_1393" x1="90.6686" y1="24.0098" x2="62.6814" y2="48.6591" gradientUnits="userSpaceOnUse">
<stop stop-color="#2276FF" stop-opacity="0.639727"/>
<stop offset="1" stop-color="white"/>
</linearGradient>
</defs>
</svg>
