<svg width="15" height="19" viewBox="0 0 15 19" fill="none" xmlns="http://www.w3.org/2000/svg">
<g id="Group 1739332407">
<path id="Vector" d="M9.42664 12.3871C8.43862 12.3871 8.43862 11.0323 7.48353 11.0323C6.49551 11.0323 6.49551 12.3871 5.54042 12.3871C4.5524 12.3871 4.5524 11.0323 3.59732 11.0323C3.56438 11.0323 3.56438 11.0323 3.53145 11.0323L1.48954 14.4516C0.336847 16.4194 1.29193 18 3.59732 18H11.4027C13.7081 18 14.6632 16.3871 13.5105 14.4516L11.4686 11C11.4356 11 11.4356 11 11.4027 11C10.4147 11 10.4147 12.3871 9.42664 12.3871Z" stroke="#D478FF" stroke-width="1.5"/>
<g id="Group">
<path id="Vector_2" d="M9.29988 7.18509V1H5.68094V7.18509C5.58224 7.31668 5.48355 7.44828 5.41775 7.61278L3.54248 10.8698C3.57538 10.8698 3.57538 10.8698 3.60828 10.8698C4.59526 10.8698 4.59526 12.2516 5.54934 12.2516C6.53633 12.2516 6.53633 10.8698 7.49041 10.8698C8.47739 10.8698 8.47739 12.2516 9.43147 12.2516C10.4185 12.2516 10.4185 10.8698 11.3725 10.8698C11.4054 10.8698 11.4054 10.8698 11.4383 10.8698L9.56307 7.61278C9.49727 7.44828 9.39857 7.31668 9.29988 7.18509Z" stroke="#D478FF" stroke-width="1.5"/>
</g>
</g>
</svg>
