<svg width="15" height="19" viewBox="0 0 15 19" fill="none" xmlns="http://www.w3.org/2000/svg">
<g id="Group">
<path id="Vector" d="M7.89893 3.58478L9.48371 2L11.362 3.90761L9.77719 5.49239" stroke="#3DB4FF" stroke-width="1.5"/>
<g id="Group_2">
<path id="Vector_2" d="M7.81087 7.10653C8.1924 7.10653 8.54457 7.25327 8.8087 7.48805L10.3054 5.99131L7.4 3.08588L2 8.45653L4.90544 11.362L6.69566 9.57175C6.46087 9.30762 6.31413 8.95545 6.31413 8.57392C6.31413 7.75218 6.98913 7.10653 7.81087 7.10653Z" stroke="#3DB4FF" stroke-width="1.5"/>
<path id="Vector_3" d="M8.80848 7.48803C8.54435 7.25325 8.19218 7.10651 7.81065 7.10651C6.98891 7.10651 6.34326 7.78151 6.34326 8.5739C6.34326 8.95542 6.49 9.30759 6.72478 9.57173C6.98891 9.8652 7.37044 10.0413 7.81065 10.0413C8.63239 10.0413 9.27805 9.36629 9.27805 8.5739C9.27805 8.13368 9.10196 7.75216 8.80848 7.48803Z" stroke="#3DB4FF" stroke-width="1.5"/>
</g>
<path id="Vector_4" d="M9.42524 8.80872H11.0687C12.7709 8.80872 14.1502 10.1881 14.1502 11.8902C14.1502 13.5924 12.7709 14.9718 11.0687 14.9718H2.14697V18.2H10.3644V16.3218" stroke="#3DB4FF" stroke-width="1.5"/>
</g>
</svg>
