<svg width="17" height="17" viewBox="0 0 17 17" fill="none" xmlns="http://www.w3.org/2000/svg">
<g id="Group">
<g id="Group_2">
<path id="Vector" d="M10.834 10.4173H13.166C13.5594 10.4173 13.9247 10.3327 14.2618 10.1917C14.599 10.0507 14.9081 9.85336 15.1609 9.5996C15.4138 9.34584 15.6105 9.03569 15.751 8.69735C15.8915 8.359 15.9757 7.99246 15.9757 7.59772C15.9757 7.20299 15.8915 6.83644 15.751 6.4981C15.6105 6.15975 15.4138 5.8496 15.1609 5.59584C14.9081 5.34208 14.599 5.14472 14.2618 5.00374C13.9247 4.86276 13.5594 4.77817 13.166 4.77817H12.9694H12.7727H12.576H12.3793C12.3512 4.24246 12.2388 3.76314 12.0422 3.28381" stroke="#3673FF" stroke-width="1.5" stroke-linecap="round"/>
<path id="Vector_2" d="M11.1992 2.09962C10.834 1.76128 10.4406 1.47932 9.96297 1.28195C9.51341 1.11278 9.00767 1 8.50192 1C7.96807 1 7.46233 1.11278 7.01277 1.31015C6.56322 1.50752 6.14176 1.78947 5.7765 2.12782C5.41124 2.46617 5.13027 2.8891 4.93359 3.34023C4.73691 3.79135 4.59643 4.29887 4.59643 4.83459H4.39975H4.20307H4.00639H3.80971C3.41635 4.83459 3.05109 4.91917 2.71392 5.06015C2.37676 5.20113 2.06769 5.3985 1.81482 5.65226C1.56194 5.90601 1.36526 6.21617 1.22478 6.55451C1.08429 6.83647 1 7.20301 1 7.59774C1 7.99248 1.08429 8.35902 1.22478 8.69737C1.36526 9.03571 1.56194 9.34586 1.81482 9.59962C2.06769 9.85338 2.37676 10.0508 2.71392 10.1917C3.05109 10.3327 3.41635 10.4173 3.80971 10.4173H6.14176" stroke="#3673FF" stroke-width="1.5" stroke-linecap="round"/>
</g>
<g id="Group_3">
<path id="Vector_3" d="M8.50195 7.09021V12.5601" stroke="#3673FF" stroke-width="1.5"/>
<path id="Vector_4" d="M10.1876 14.2801C10.1876 15.2106 9.42899 16 8.47369 16C7.54648 16 6.75977 15.2388 6.75977 14.2801C6.75977 13.3497 7.51839 12.5602 8.47369 12.5602C9.42899 12.5602 10.1876 13.3215 10.1876 14.2801Z" stroke="#3673FF" stroke-width="1.5"/>
</g>
</g>
</svg>
